<?xml version="1.0" encoding="UTF-8" standalone="no"?>
<svg
   xmlns:dc="http://purl.org/dc/elements/1.1/"
   xmlns:cc="http://creativecommons.org/ns#"
   xmlns:rdf="http://www.w3.org/1999/02/22-rdf-syntax-ns#"
   xmlns:svg="http://www.w3.org/2000/svg"
   xmlns="http://www.w3.org/2000/svg"
   xmlns:sodipodi="http://sodipodi.sourceforge.net/DTD/sodipodi-0.dtd"
   xmlns:inkscape="http://www.inkscape.org/namespaces/inkscape"
   version="1.1"
   id="v_12"
   width="100%"
   height="100%"
   viewBox="30 108 562.49453 369.33633"
   inkscape:version="0.48.2 r9819"
   sodipodi:docname="analysephase.svg">
  <metadata
     id="metadata117">
    <rdf:RDF>
      <cc:Work
         rdf:about="">
        <dc:format>image/svg+xml</dc:format>
        <dc:type
           rdf:resource="http://purl.org/dc/dcmitype/StillImage" />
      </cc:Work>
    </rdf:RDF>
  </metadata>
  <sodipodi:namedview
     pagecolor="#ffffff"
     bordercolor="#666666"
     borderopacity="1"
     objecttolerance="10"
     gridtolerance="10"
     guidetolerance="10"
     inkscape:pageopacity="0"
     inkscape:pageshadow="2"
     inkscape:window-width="1680"
     inkscape:window-height="933"
     id="namedview115"
     showgrid="false"
     fit-margin-top="0"
     fit-margin-left="0"
     fit-margin-right="0"
     fit-margin-bottom="0"
     inkscape:zoom="0.6519337"
     inkscape:cx="282.1"
     inkscape:cy="181.6"
     inkscape:window-x="0"
     inkscape:window-y="0"
     inkscape:window-maximized="1"
     inkscape:current-layer="v_12" />
  <defs
     id="v_14" />
  <g
     id="v_13"
     class="viewport"
     transform="translate(0.6,6.7363281)">
    <g
       id="j_15"
       model-id="6913a8b1-f9f4-4fc8-a715-33bf8166c2ec"
       class="element pn Place"
       transform="translate(240,130)"
       style="fill:#ffffff;stroke:none">
      <g
         class="rotatable"
         id="v_158">
        <g
           class="scalable"
           id="v_161"
           transform="scale(1.2,1.2)">
          <circle
             class="root"
             id="v_159"
             r="25"
             transform="translate(25,25)"
             style="fill:#ffffff;stroke:#000000;stroke-width:1;stroke-dasharray:none"
             d="M 25,0 C 25,13.807119 13.807119,25 0,25 -13.807119,25 -25,13.807119 -25,0 c 0,-13.807119 11.192881,-25 25,-25 13.807119,0 25,11.192881 25,25 z"
             cx="0"
             cy="0"
             sodipodi:cx="0"
             sodipodi:cy="0"
             sodipodi:rx="25"
             sodipodi:ry="25" />
          <g
             class="tokens"
             id="g9" />
        </g>
        <text
           class="label"
           id="v_160"
           font-size="12"
           font-weight="400"
           y="8.9683102e-44"
           transform="translate(30.000002,-20)"
           style="font-size:12px;font-weight:400;text-anchor:middle;fill:#000000;stroke:#000000;stroke-width:0;font-family:Arial">hasRef</text>
      </g>
    </g>
    <g
       id="j_14"
       model-id="90c183f1-ab7a-4780-9c35-70215ab52b7d"
       class="element pn Place"
       transform="translate(30,250)"
       style="fill:#ffffff;stroke:none">
      <g
         class="rotatable"
         id="v_151">
        <g
           class="scalable"
           id="v_154"
           transform="scale(1.2,1.2)">
          <circle
             class="root"
             id="v_152"
             r="25"
             transform="translate(25,25)"
             style="fill:#ffffff;stroke:#000000;stroke-width:1;stroke-dasharray:none"
             d="M 25,0 C 25,13.807119 13.807119,25 0,25 -13.807119,25 -25,13.807119 -25,0 c 0,-13.807119 11.192881,-25 25,-25 13.807119,0 25,11.192881 25,25 z"
             cx="0"
             cy="0"
             sodipodi:cx="0"
             sodipodi:cy="0"
             sodipodi:rx="25"
             sodipodi:ry="25" />
          <g
             class="tokens one"
             id="g16">
            <circle
               id="v_155"
               r="5"
               transform="translate(25,25)"
               style="fill:#000000"
               d="M 5,0 C 5,2.7614237 2.7614237,5 0,5 -2.7614237,5 -5,2.7614237 -5,0 c 0,-2.7614237 2.2385763,-5 5,-5 2.7614237,0 5,2.2385763 5,5 z"
               cx="0"
               cy="0"
               sodipodi:cx="0"
               sodipodi:cy="0"
               sodipodi:rx="5"
               sodipodi:ry="5" />
          </g>
        </g>
        <text
           class="label"
           id="v_153"
           font-size="12"
           font-weight="400"
           y="8.9683102e-44"
           transform="translate(30.000002,-20)"
           style="font-size:12px;font-weight:400;text-anchor:middle;fill:#000000;stroke:#000000;stroke-width:0;font-family:Arial">onUpdate</text>
      </g>
    </g>
    <g
       id="j_13"
       model-id="a5f2c09d-3339-481a-89d4-560867af4684"
       class="element pn Transition"
       transform="translate(150,250)"
       style="fill:#ffffff;stroke:none">
      <g
         class="rotatable"
         id="v_145">
        <g
           class="scalable"
           id="v_148"
           transform="scale(1.2,1.2)">
          <rect
             class="root"
             id="v_147"
             width="12"
             height="50"
             rx="1"
             ry="1"
             style="fill:#000000;stroke:#000000;stroke-width:1;stroke-dasharray:none"
             x="0"
             y="0" />
        </g>
      </g>
      <text
         class="label"
         id="v_146"
         font-size="12"
         font-weight="400"
         y="8.9683102e-44"
         transform="translate(7.2000003,-20)"
         style="font-size:12px;font-weight:400;text-anchor:middle;fill:#000000;stroke:#000000;stroke-width:0;font-family:Arial">t1</text>
    </g>
    <g
       id="j_12"
       model-id="af6b7b64-1601-4a7c-b60c-c169de2e506d"
       class="element pn Place"
       transform="translate(240,360)"
       style="fill:#ffffff;stroke:none">
      <g
         class="rotatable"
         id="v_139">
        <g
           class="scalable"
           id="v_142"
           transform="scale(1.2,1.2)">
          <circle
             class="root"
             id="v_140"
             r="25"
             transform="translate(25,25)"
             style="fill:#ffffff;stroke:#000000;stroke-width:1;stroke-dasharray:none"
             d="M 25,0 C 25,13.807119 13.807119,25 0,25 -13.807119,25 -25,13.807119 -25,0 c 0,-13.807119 11.192881,-25 25,-25 13.807119,0 25,11.192881 25,25 z"
             cx="0"
             cy="0"
             sodipodi:cx="0"
             sodipodi:cy="0"
             sodipodi:rx="25"
             sodipodi:ry="25" />
          <g
             class="tokens"
             id="g29" />
        </g>
        <text
           class="label"
           id="v_141"
           font-size="12"
           font-weight="400"
           y="8.9683102e-44"
           transform="translate(30.000002,-20)"
           style="font-size:12px;font-weight:400;text-anchor:middle;fill:#000000;stroke:#000000;stroke-width:0;font-family:Arial">noRef</text>
      </g>
    </g>
    <g
       id="j_11"
       model-id="d67e4cd8-4709-48dc-8859-680840143bcc"
       class="element pn Place"
       transform="translate(520,140)"
       style="fill:#ffffff;stroke:none">
      <g
         class="rotatable"
         id="v_133">
        <g
           class="scalable"
           id="v_136"
           transform="scale(1.2,1.2)">
          <circle
             class="root"
             id="v_134"
             r="25"
             transform="translate(25,25)"
             style="fill:#ffffff;stroke:#000000;stroke-width:1;stroke-dasharray:none"
             d="M 25,0 C 25,13.807119 13.807119,25 0,25 -13.807119,25 -25,13.807119 -25,0 c 0,-13.807119 11.192881,-25 25,-25 13.807119,0 25,11.192881 25,25 z"
             cx="0"
             cy="0"
             sodipodi:cx="0"
             sodipodi:cy="0"
             sodipodi:rx="25"
             sodipodi:ry="25" />
          <g
             class="tokens"
             id="g36" />
        </g>
        <text
           class="label"
           id="v_135"
           font-size="12"
           font-weight="400"
           y="8.9683102e-44"
           transform="translate(30.000002,-20)"
           style="font-size:12px;font-weight:400;text-anchor:middle;fill:#000000;stroke:#000000;stroke-width:0;font-family:Arial">triggerCodeGen</text>
      </g>
    </g>
    <g
       id="j_10"
       model-id="7c71dfb4-ce7c-4cde-8700-74be82df7650"
       class="element pn Transition"
       transform="translate(410,350)"
       style="fill:#ffffff;stroke:none">
      <g
         class="rotatable"
         id="v_127">
        <g
           class="scalable"
           id="v_130"
           transform="scale(1.2,1.2)">
          <rect
             class="root"
             id="v_129"
             width="12"
             height="50"
             rx="1"
             ry="1"
             style="fill:#000000;stroke:#000000;stroke-width:1;stroke-dasharray:none"
             x="0"
             y="0" />
        </g>
      </g>
      <text
         class="label"
         id="v_128"
         font-size="12"
         font-weight="400"
         y="8.9683102e-44"
         transform="translate(7.2000003,-20)"
         style="font-size:12px;font-weight:400;text-anchor:middle;fill:#000000;stroke:#000000;stroke-width:0;font-family:Arial">t2</text>
    </g>
    <g
       id="j_9"
       model-id="9ab17d52-39d5-4aab-ae2c-c59b4f1b1c9a"
       class="element pn Transition"
       transform="translate(410,140)"
       style="fill:#ffffff;stroke:none">
      <g
         class="rotatable"
         id="v_121">
        <g
           class="scalable"
           id="v_124"
           transform="scale(1.2,1.2)">
          <rect
             class="root"
             id="v_123"
             width="12"
             height="50"
             rx="1"
             ry="1"
             style="fill:#000000;stroke:#000000;stroke-width:1;stroke-dasharray:none"
             x="0"
             y="0" />
        </g>
      </g>
      <text
         class="label"
         id="v_122"
         font-size="12"
         font-weight="400"
         y="8.9683102e-44"
         transform="translate(7.2000003,-20)"
         style="font-size:12px;font-weight:400;text-anchor:middle;fill:#000000;stroke:#000000;stroke-width:0;font-family:Arial">t3</text>
    </g>
    <g
       id="j_8"
       model-id="9c68de56-c2a1-4de9-99de-165e02e03184"
       class="element pn Place"
       transform="translate(520,310)"
       style="fill:#ffffff;stroke:none">
      <g
         class="rotatable"
         id="v_115">
        <g
           class="scalable"
           id="v_118"
           transform="scale(1.2,1.2)">
          <circle
             class="root"
             id="v_116"
             r="25"
             transform="translate(25,25)"
             style="fill:#ffffff;stroke:#000000;stroke-width:1;stroke-dasharray:none"
             d="M 25,0 C 25,13.807119 13.807119,25 0,25 -13.807119,25 -25,13.807119 -25,0 c 0,-13.807119 11.192881,-25 25,-25 13.807119,0 25,11.192881 25,25 z"
             cx="0"
             cy="0"
             sodipodi:cx="0"
             sodipodi:cy="0"
             sodipodi:rx="25"
             sodipodi:ry="25" />
          <g
             class="tokens"
             id="g53" />
        </g>
        <text
           class="label"
           id="v_117"
           font-size="12"
           font-weight="400"
           y="8.9683102e-44"
           transform="translate(30.000002,-20)"
           style="font-size:12px;font-weight:400;text-anchor:middle;fill:#000000;stroke:#000000;stroke-width:0;font-family:Arial">gotUpdate</text>
      </g>
    </g>
    <g
       id="j_7"
       model-id="9d052692-fc7a-4aad-91c8-00ca3292a1ca"
       class="element pn Place"
       transform="translate(520,410)"
       style="fill:#ffffff;stroke:none">
      <g
         class="rotatable"
         id="v_109">
        <g
           class="scalable"
           id="v_112"
           transform="scale(1.2,1.2)">
          <circle
             class="root"
             id="v_110"
             r="25"
             transform="translate(25,25)"
             style="fill:#ffffff;stroke:#000000;stroke-width:1;stroke-dasharray:none"
             d="M 25,0 C 25,13.807119 13.807119,25 0,25 -13.807119,25 -25,13.807119 -25,0 c 0,-13.807119 11.192881,-25 25,-25 13.807119,0 25,11.192881 25,25 z"
             cx="0"
             cy="0"
             sodipodi:cx="0"
             sodipodi:cy="0"
             sodipodi:rx="25"
             sodipodi:ry="25" />
          <g
             class="tokens"
             id="g60" />
        </g>
        <text
           class="label"
           id="v_111"
           font-size="12"
           font-weight="400"
           y="8.9683102e-44"
           transform="translate(30.000002,-20)"
           style="font-size:12px;font-weight:400;text-anchor:middle;fill:#000000;stroke:#000000;stroke-width:0;font-family:Arial">sendState</text>
      </g>
    </g>
    <g
       id="j_16"
       model-id="2f8ccddf-bf8e-4d84-bfbb-865f78478cac"
       class="link">
      <path
         class="connection"
         id="v_164"
         d="M 90.01,280 130,280"
         style="fill:none;stroke:#000000;stroke-linejoin:round"
         inkscape:connector-curvature="0" />
      <path
         class="marker-source"
         id="v_165"
         d="M 10,0 0,5 10,10 z"
         transform="matrix(0.001,0,0,0.001,89.999997,279.995)"
         style="fill:#000000;stroke:#000000"
         inkscape:connector-curvature="0" />
      <path
         class="marker-target"
         id="v_166"
         d="M 10,0 0,5 10,10 z"
         transform="matrix(-1,0,0,-1,140,285)"
         style="fill:#000000;stroke:#000000"
         inkscape:connector-curvature="0" />
      <g
         class="labels"
         id="v_168" />
    </g>
    <g
       id="j_17"
       model-id="d5b944ff-9dc3-47a7-b820-fec6a973c146"
       class="link">
      <path
         class="connection"
         id="v_177"
         d="M 300.01,160 400,160"
         style="fill:none;stroke:#000000;stroke-linejoin:round"
         inkscape:connector-curvature="0" />
      <path
         class="marker-source"
         id="v_178"
         d="M 10,0 0,5 10,10 z"
         transform="matrix(0.001,0,0,0.001,300,159.995)"
         style="fill:#000000;stroke:#000000"
         inkscape:connector-curvature="0" />
      <path
         class="marker-target"
         id="v_179"
         d="M 10,0 0,5 10,10 z"
         transform="matrix(-1,0,0,-1,410,165)"
         style="fill:#000000;stroke:#000000"
         inkscape:connector-curvature="0" />
      <g
         class="labels"
         id="v_181" />
    </g>
    <g
       id="j_6"
       model-id="de21f431-237f-42eb-b334-ea5f7fc43527"
       class="element pn Place"
       transform="translate(240,250)"
       style="fill:#ffffff;stroke:none">
      <g
         class="rotatable"
         id="v_103">
        <g
           class="scalable"
           id="v_106"
           transform="scale(1.2,1.2)">
          <circle
             class="root"
             id="v_104"
             r="25"
             transform="translate(25,25)"
             style="fill:#ffffff;stroke:#000000;stroke-width:1;stroke-dasharray:none"
             d="M 25,0 C 25,13.807119 13.807119,25 0,25 -13.807119,25 -25,13.807119 -25,0 c 0,-13.807119 11.192881,-25 25,-25 13.807119,0 25,11.192881 25,25 z"
             cx="0"
             cy="0"
             sodipodi:cx="0"
             sodipodi:cy="0"
             sodipodi:rx="25"
             sodipodi:ry="25" />
          <g
             class="tokens"
             id="g77" />
        </g>
        <text
           class="label"
           id="v_105"
           font-size="12"
           font-weight="400"
           y="8.9683102e-44"
           transform="translate(30.000002,-20)"
           style="font-size:12px;font-weight:400;text-anchor:middle;fill:#000000;stroke:#000000;stroke-width:0;font-family:Arial">getContentSrc</text>
      </g>
    </g>
    <g
       id="j_18"
       model-id="da6f0f7c-ce35-4a09-9386-fcff67938dd2"
       class="link">
      <path
         class="connection"
         id="v_190"
         d="M 430.01,170 498,170"
         style="fill:none;stroke:#000000;stroke-linejoin:round"
         inkscape:connector-curvature="0" />
      <path
         class="marker-source"
         id="v_191"
         d="M 10,0 0,5 10,10 z"
         transform="matrix(0.001,0,0,0.001,430,169.995)"
         style="fill:#000000;stroke:#000000"
         inkscape:connector-curvature="0" />
      <path
         class="marker-target"
         id="v_192"
         d="M 10,0 0,5 10,10 z"
         transform="matrix(-1,0,0,-1,508,175)"
         style="fill:#000000;stroke:#000000"
         inkscape:connector-curvature="0" />
      <g
         class="labels"
         id="v_194" />
    </g>
    <g
       id="j_19"
       model-id="984f83b1-61a9-4c16-a048-bbd64f14ff73"
       class="link">
      <path
         class="connection"
         id="v_203"
         d="M 300.01,390 400,390"
         style="fill:none;stroke:#000000;stroke-linejoin:round"
         inkscape:connector-curvature="0" />
      <path
         class="marker-source"
         id="v_204"
         d="M 10,0 0,5 10,10 z"
         transform="matrix(0.001,0,0,0.001,300,389.995)"
         style="fill:#000000;stroke:#000000"
         inkscape:connector-curvature="0" />
      <path
         class="marker-target"
         id="v_205"
         d="M 10,0 0,5 10,10 z"
         transform="matrix(-1,0,0,-1,410,395)"
         style="fill:#000000;stroke:#000000"
         inkscape:connector-curvature="0" />
      <g
         class="labels"
         id="v_207" />
    </g>
    <g
       id="j_20"
       model-id="b668951b-58c6-4a6a-9690-036f1ec2a9ac"
       class="link">
      <path
         class="connection"
         id="v_216"
         d="M 300.00759,300.00651 370,360 l 30,0"
         style="fill:none;stroke:#000000;stroke-linejoin:round"
         inkscape:connector-curvature="0" />
      <path
         class="marker-source"
         id="v_217"
         d="M 10,0 0,5 10,10 z"
         transform="matrix(7.5925668e-4,6.5079128e-4,-6.5079128e-4,7.5925668e-4,300.00324,299.99622)"
         style="fill:#000000;stroke:#000000"
         inkscape:connector-curvature="0" />
      <path
         class="marker-target"
         id="v_218"
         d="M 10,0 0,5 10,10 z"
         transform="matrix(-1,0,0,-1,410,365)"
         style="fill:#000000;stroke:#000000"
         inkscape:connector-curvature="0" />
      <g
         class="labels"
         id="v_220" />
    </g>
    <g
       id="j_21"
       model-id="2be3dbb3-39d5-4000-8dc9-f4cec2282ce5"
       class="link">
      <path
         class="connection"
         id="v_230"
         d="m 430.00936,369.99649 70.62735,-26.48526"
         style="fill:none;stroke:#000000;stroke-linejoin:round"
         inkscape:connector-curvature="0" />
      <path
         class="marker-source"
         id="v_231"
         d="M 10,0 0,5 10,10 z"
         transform="matrix(9.3632918e-4,-3.5112345e-4,3.5112345e-4,9.3632918e-4,429.99823,369.9953)"
         style="fill:#000000;stroke:#000000"
         inkscape:connector-curvature="0" />
      <path
         class="marker-target"
         id="v_232"
         d="M 10,0 0,5 10,10 z"
         transform="matrix(-0.93632918,0.35112345,-0.35112345,-0.93632918,511.75562,344.68164)"
         style="fill:#000000;stroke:#000000"
         inkscape:connector-curvature="0" />
      <g
         class="labels"
         id="v_234" />
    </g>
    <g
       id="j_22"
       model-id="42ee0abc-a6d9-482a-974c-0b8bb6a822b7"
       class="link">
      <path
         class="connection"
         id="v_243"
         d="m 430.00936,390.00351 70.62735,26.48526"
         style="fill:none;stroke:#000000;stroke-linejoin:round"
         inkscape:connector-curvature="0" />
      <path
         class="marker-source"
         id="v_244"
         d="M 10,0 0,5 10,10 z"
         transform="matrix(9.3632927e-4,3.511232e-4,-3.511232e-4,9.3632927e-4,430.00174,389.99533)"
         style="fill:#000000;stroke:#000000"
         inkscape:connector-curvature="0" />
      <path
         class="marker-target"
         id="v_245"
         d="M 10,0 0,5 10,10 z"
         transform="matrix(-0.93632918,-0.35112345,0.35112345,-0.93632918,508.24439,424.68165)"
         style="fill:#000000;stroke:#000000"
         inkscape:connector-curvature="0" />
      <g
         class="labels"
         id="v_247" />
    </g>
    <g
       id="j_23"
       model-id="ea3e5f33-8f3f-4dfb-8e45-20141581670f"
       class="link">
      <path
         class="connection"
         id="v_256"
         d="M 170.01,280 222,280"
         style="fill:none;stroke:#000000;stroke-linejoin:round"
         inkscape:connector-curvature="0" />
      <path
         class="marker-source"
         id="v_257"
         d="M 10,0 0,5 10,10 z"
         transform="matrix(0.001,0,0,0.001,170,279.995)"
         style="fill:#000000;stroke:#000000"
         inkscape:connector-curvature="0" />
      <path
         class="marker-target"
         id="v_258"
         d="M 10,0 0,5 10,10 z"
         transform="matrix(-1,0,0,-1,232,285)"
         style="fill:#000000;stroke:#000000"
         inkscape:connector-curvature="0" />
      <g
         class="labels"
         id="v_260" />
    </g>
    <g
       id="j_24"
       model-id="26407baa-af6f-46f1-b31f-bc1ba266c469"
       class="link">
      <path
         class="connection"
         id="v_269"
         d="M 300.00707,259.99293 370,190 l 30,0"
         style="fill:none;stroke:#000000;stroke-linejoin:round"
         inkscape:connector-curvature="0" />
      <path
         class="marker-source"
         id="v_270"
         d="M 10,0 0,5 10,10 z"
         transform="matrix(7.0710678e-4,-7.0710678e-4,7.0710678e-4,7.0710678e-4,299.99647,259.99646)"
         style="fill:#000000;stroke:#000000"
         inkscape:connector-curvature="0" />
      <path
         class="marker-target"
         id="v_271"
         d="M 10,0 0,5 10,10 z"
         transform="matrix(-1,0,0,-1,410,195)"
         style="fill:#000000;stroke:#000000"
         inkscape:connector-curvature="0" />
      <g
         class="labels"
         id="v_273" />
    </g>
  </g>
</svg>
