<?xml version="1.0" encoding="UTF-8" standalone="no"?>
<!-- Created with Inkscape (http://www.inkscape.org/) -->

<svg
   xmlns:dc="http://purl.org/dc/elements/1.1/"
   xmlns:cc="http://creativecommons.org/ns#"
   xmlns:rdf="http://www.w3.org/1999/02/22-rdf-syntax-ns#"
   xmlns:svg="http://www.w3.org/2000/svg"
   xmlns="http://www.w3.org/2000/svg"
   version="1.1"
   width="85mm"
   height="54mm"
   id="svg3133">
  <defs
     id="defs3" />
  <metadata
     id="metadata3137">
    <rdf:RDF>
      <cc:Work
         rdf:about="">
        <dc:format>image/svg+xml</dc:format>
        <dc:type
           rdf:resource="http://purl.org/dc/dcmitype/StillImage" />
        <dc:title></dc:title>
      </cc:Work>
    </rdf:RDF>
  </metadata>
  <g
     id="layer1">
    <path
       d="m 147.1728,1.8922589 c -0.80989,-0.0112 -1.38513,0.46516 -1.38513,1.26762 0,0.48299 0.22371,0.67301 1.09132,0.90664 0.90186,0.24284 1.07671,0.39421 1.00737,0.88145 -0.0976,0.68598 -1.1115,0.94231 -1.72093,0.43653 -0.21706,-0.18014 -0.48063,-0.24133 -0.58763,-0.13432 -0.10702,0.10701 0.0408,0.3697 0.32739,0.57925 1.03092,0.75382 2.36135,0.30456 2.64436,-0.88985 0.15931,-0.67234 -0.12397,-0.9605 -1.2844,-1.33478 -1.19005,-0.38383 -1.05354,-1.03906 0.20147,-0.9654 1.0214,0.0599 1.35622,-0.27269 0.57924,-0.57085 -0.3091,-0.11861 -0.60309,-0.17257 -0.87306,-0.17629 z m 3.0725,1.38515 c -0.27844,0.0254 -0.57026,0.15052 -0.8143,0.39455 -0.49956,0.49956 -0.55714,1.75981 -0.10073,2.21623 0.37928,0.37928 1.83006,0.43158 1.83006,0.0672 0,-0.13794 -0.32704,-0.28905 -0.72195,-0.3358 -1.1325,-0.13406 -1.11159,-0.75553 0.0252,-0.75553 0.74786,0 0.9654,-0.11123 0.9654,-0.48689 0,-0.72683 -0.57109,-1.15553 -1.18366,-1.09972 z m -0.042,0.51208 c 0.2129,0 0.46275,0.12088 0.55406,0.26863 0.0913,0.14775 -0.082,0.26863 -0.38616,0.26863 -0.30422,0 -0.55406,-0.12088 -0.55406,-0.26863 0,-0.14775 0.17326,-0.26863 0.38616,-0.26863 z m -1.2844,3.49223 c -1.01159,0 -1.65879,0.88998 -1.21725,1.67896 0.26504,0.47359 -0.7493,3.3207001 -1.79649,5.0368801 -0.31553,0.51712 -0.97216,1.84686 -1.45229,2.95497 -0.48013,1.10811 -1.20592,2.74006 -1.6202,3.62656 -1.77316,3.79422 -2.68634,5.80315 -2.68634,5.92672 0,0.3263 -3.91921,8.05313 -4.13023,8.14295 -0.49105,0.20901 -1.24244,1.12364 -1.24244,1.51107 0,0.22162 0.22881,0.63175 0.51209,0.91503 0.32213,0.32213 0.67474,1.35346 0.94022,2.75349 0.23344,1.23115 0.5456,2.78539 0.68837,3.45026 0.14276,0.66487 0.38148,1.93417 0.52887,2.82066 0.14739,0.88649 0.34394,2.09534 0.44493,2.68633 0.21094,1.23455 0.19647,2.36484 -0.0504,3.42508 -0.1025,0.44025 -0.0386,0.90297 0.1595,1.14169 0.45176,0.54434 1.50113,0.5087 1.9308,-0.0671 0.395,-0.52939 1.82774,-1.04596 3.03892,-1.09972 0.44324,-0.0197 1.53121,-0.21343 2.4177,-0.42814 2.24341,-0.54337 5.78158,-1.35574 8.32764,-1.90562 1.18199,-0.25528 2.83458,-0.62768 3.66853,-0.83109 0.83394,-0.2034 1.79562,-0.36937 2.14067,-0.36937 0.34505,0 2.89671,-0.56751 5.66649,-1.25921 4.38546,-1.0952 5.11238,-1.20768 5.67488,-0.90664 0.36126,0.19334 0.90734,0.26319 1.23404,0.1595 0.48253,-0.15315 0.57143,-0.36196 0.50368,-1.17527 -0.0694,-0.83356 -0.21125,-1.02272 -0.89824,-1.22564 -0.77621,-0.22929 -1.53634,-1.30948 -4.90256,-6.95929 -0.19127,-0.32101 -0.82924,-1.31295 -1.41033,-2.19944 -0.58109,-0.88649 -1.3719,-2.21623 -1.7629,-2.95497 -0.391,-0.73874 -1.57934,-2.6729 -2.63597,-4.29813 -1.05664,-1.62523 -2.06161,-3.27616 -2.23302,-3.66853 -0.1714,-0.39237 -1.16407,-2.00102 -2.20783,-3.57618 -1.04376,-1.57517 -1.89722,-2.95409 -1.89722,-3.0641 0,-0.11002 -0.21155,-0.43471 -0.47011,-0.72196 -0.25856,-0.28724 -0.76575,-1.06528 -1.12491,-1.72932 -0.35915,-0.66405 -1.27799,-2.17938 -2.03993,-3.36632 -1.05085,-1.63699 -1.31724,-2.2589601 -1.11651,-2.5772001 0.14555,-0.23075 0.18239,-0.74106 0.0839,-1.1333 -0.14875,-0.59267 -0.32486,-0.71356 -1.06614,-0.71356 z m 0.008,0.3274 c 0.0714,-0.001 0.1432,0.0112 0.20147,0.0336 0.55028,0.21113 0.54211,1.41734 -0.008,1.62859 -0.59481,0.22825 -0.59292,0.22189 -0.93182,-0.41135 -0.24047,-0.44933 -0.22194,-0.65111 0.10074,-0.97379 0.16844,-0.16845 0.42383,-0.27314 0.638,-0.27703 z m 0.21828,2.4932601 1.36835,2.14906 c 0.75377,1.18199 1.41864,2.27921 1.47748,2.4345 0.0588,0.15528 1.37843,2.29848 2.92979,4.76824 5.47184,8.71118 6.2688,10.0142 7.71482,12.54183 0.80298,1.40361 1.63773,2.74689 1.84685,2.98015 0.20913,0.23326 0.37777,0.51953 0.37777,0.63801 0,0.11846 0.4231,0.79966 0.94021,1.51945 0.51712,0.7198 0.94022,1.35446 0.94022,1.41033 0,0.0559 0.78662,1.35572 1.74612,2.88781 1.64297,2.62343 2.02243,3.38976 1.53625,3.08928 -0.11446,-0.0707 -0.62823,-0.0216 -1.14169,0.10074 -0.84736,0.20187 -0.876,0.2386 -0.3274,0.41135 0.33243,0.10468 0.60523,0.2674 0.60442,0.36098 -0.001,0.1823 -7.67941,1.99022 -11.01397,2.59399 -1.10812,0.20063 -4.85555,0.98231 -8.32764,1.73772 -3.47209,0.75541 -6.67554,1.41816 -7.11879,1.47748 -0.44325,0.0593 -1.27105,0.1899 -1.83846,0.28543 -1.01542,0.17095 -1.02256,0.16047 -0.69677,-0.46172 0.18205,-0.34767 0.56327,-0.96204 0.84788,-1.36835 0.28461,-0.40631 0.38447,-0.73874 0.22666,-0.73874 -0.15781,0 -0.28543,0.12088 -0.28543,0.26863 0,0.14775 -0.10853,0.26864 -0.24344,0.26864 -0.14426,0 -0.15203,-0.3043 -0.0168,-0.73875 0.12647,-0.40631 0.42291,-1.76626 0.66318,-3.02213 0.24027,-1.25585 0.54923,-2.82736 0.67998,-3.49223 0.13075,-0.66487 0.34718,-1.78163 0.47851,-2.48486 0.13132,-0.70322 0.29533,-1.34468 0.36937,-1.41872 0.074,-0.074 0.66046,0.051 1.30119,0.27703 0.72642,0.2563 1.26139,0.31683 1.41872,0.1595 0.23434,-0.23434 -1.31182,-0.82727 -2.16585,-0.83109 -0.51133,-0.002 -0.41031,-1.038 0.42813,-4.3569 0.42086,-1.66597 0.91132,-3.81627 1.09132,-4.77664 0.18,-0.96036 0.43645,-2.22965 0.57085,-2.82064 0.13439,-0.591 0.67482,-3.25047 1.20045,-5.90994 0.52564,-2.65948 1.06635,-5.07718 1.20046,-5.37267 0.1341,-0.2955 0.32524,-0.92886 0.41974,-1.41033 0.0945,-0.48147 0.27547,-0.80914 0.40295,-0.73035 0.12749,0.0788 0.26543,-0.43626 0.31061,-1.14169 z m -1.56983,2.40091 c 0.0107,-0.008 0.0205,-0.005 0.0252,0 0.0785,0.0785 -0.0395,0.65317 -0.26863,1.2844 -0.47356,1.30487 -0.85232,2.95916 -2.20784,9.61205 -1.75413,8.60933 -2.52051,11.61112 -3.0557,12.02974 -0.35616,0.27858 -0.37064,0.39366 -0.0839,0.57085 0.29449,0.182 0.28521,0.52105 -0.0504,1.93919 -0.22342,0.94417 -0.53959,2.37741 -0.70517,3.19003 -0.16557,0.81261 -0.40904,1.96102 -0.53726,2.55201 -0.12822,0.591 -0.38268,1.79985 -0.56246,2.68634 -0.4617,2.27668 -0.9859,3.83869 -1.13329,3.35792 -0.0679,-0.22162 -0.38693,-1.85357 -0.70517,-3.62655 -0.86423,-4.81504 -1.09631,-6.05434 -1.40192,-7.44619 -0.33419,-1.52199 -0.1916,-1.82167 0.88146,-1.82167 l 0.82269,0 -0.85627,-0.7975 c -0.95534,-0.89242 -0.93965,-1.12472 0.18469,-3.21522 0.3629,-0.67474 1.68755,-3.52245 2.94657,-6.32967 1.25902,-2.80722 2.37883,-5.22492 2.49326,-5.37267 0.11443,-0.14775 0.2992,-0.57085 0.41134,-0.94022 0.3396,-1.11852 3.47096,-7.4169 3.80284,-7.67284 z m 1.26761,0.77232 c -0.0409,0.0262 -0.0778,0.23597 -0.14271,0.65479 -0.0745,0.48018 -0.0379,0.87306 0.0756,0.87306 0.34678,0 0.43085,-0.3704 0.24345,-1.07453 -0.0857,-0.32218 -0.13543,-0.47953 -0.17629,-0.45332 z m -0.10074,2.33376 c -0.14774,0 -0.26863,0.3022 -0.26863,0.67158 0,0.36937 0.12089,0.67158 0.26863,0.67158 0.14776,0 0.26864,-0.30221 0.26864,-0.67158 0,-0.36938 -0.12088,-0.67158 -0.26864,-0.67158 z m 0,1.88043 c -0.29879,0 -0.37356,1.15429 -0.0923,1.43551 0.3035,0.30349 0.36098,0.205 0.36098,-0.62961 0,-0.44325 -0.12088,-0.8059 -0.26863,-0.8059 z m 0,1.88043 c -0.14774,0 -0.26863,0.30222 -0.26863,0.67159 0,0.36937 0.12089,0.67158 0.26863,0.67158 0.14776,0 0.26864,-0.30221 0.26864,-0.67158 0,-0.36937 -0.12088,-0.67159 -0.26864,-0.67159 z m 0,2.14907 c -0.14774,0 -0.26863,0.24177 -0.26863,0.53727 0,0.29549 0.12089,0.53727 0.26863,0.53727 0.14776,0 0.26864,-0.24178 0.26864,-0.53727 0,-0.2955 -0.12088,-0.53727 -0.26864,-0.53727 z m 0.0588,1.72933 c -0.018,8.8e-4 -0.0392,0.005 -0.0588,0.0168 -0.14774,0.0913 -0.26863,0.46203 -0.26863,0.82269 0,0.36065 0.12089,0.65479 0.26863,0.65479 0.14776,0 0.26864,-0.37072 0.26864,-0.82269 0,-0.4195 -0.0835,-0.67764 -0.20987,-0.67158 z m -0.0588,2.03154 c -0.14774,0 -0.26863,0.30221 -0.26863,0.67159 0,0.36937 0.12089,0.67158 0.26863,0.67158 0.14776,0 0.26864,-0.30221 0.26864,-0.67158 0,-0.36938 -0.12088,-0.67159 -0.26864,-0.67159 z m 0,1.88043 c -0.14774,0 -0.26863,0.24177 -0.26863,0.53727 0,0.2955 0.12089,0.53727 0.26863,0.53727 0.14776,0 0.26864,-0.24177 0.26864,-0.53727 0,-0.2955 -0.12088,-0.53727 -0.26864,-0.53727 z m -1.80487,1.4523 c -0.23057,-0.0174 -0.45387,0.0797 -0.78072,0.29382 -0.94141,0.61683 -0.76413,1.53084 0.36937,1.89722 1.89753,0.61335 1.82589,1.6107 -0.10074,1.39354 -1.21762,-0.13724 -1.51865,0.10543 -0.70516,0.57924 0.64684,0.37675 1.14593,0.35651 2.00636,-0.0923 0.42629,-0.22238 0.80001,-0.27967 0.88985,-0.13432 0.4137,0.66939 0.81834,0.1661 0.87305,-1.09132 0.0588,-1.3507 -0.38885,-1.88708 -0.67158,-0.8059 -0.14185,0.54242 -0.61282,0.75511 -0.61282,0.27703 0,-0.14206 -0.49078,-0.39235 -1.09133,-0.55406 -1.27184,-0.34247 -1.28824,-0.93569 -0.0252,-0.93182 0.97744,0.003 1.09037,-0.25368 0.29382,-0.67998 -0.16252,-0.087 -0.30658,-0.14067 -0.44492,-0.15111 z m 2.20783,0.1595 c -0.22163,0 -0.40296,0.12089 -0.40296,0.26864 0,0.14775 0.18133,0.26863 0.40296,0.26863 0.22162,0 0.40295,-0.12088 0.40295,-0.26863 0,-0.14775 -0.18133,-0.26864 -0.40295,-0.26864 z m 10.45991,0.0923 c -0.20664,0.12105 -0.33609,3.13022 -0.1595,4.00431 0.0224,0.11081 0.14895,0.20148 0.27703,0.20148 0.32632,0 0.22815,-4.09633 -0.10074,-4.20579 -0.007,-0.002 -0.0101,-0.004 -0.0168,0 z m -7.85753,0.98219 c -1.05041,0 -1.64114,0.52518 -1.71254,1.51945 -0.0699,0.97376 0.42814,1.70415 1.15849,1.70415 0.27741,0 0.50368,0.12089 0.50368,0.26863 0,0.14775 -0.43116,0.26864 -0.957,0.26864 -0.56898,0 -0.88792,0.10876 -0.78911,0.26863 0.0913,0.14775 0.57972,0.26863 1.08293,0.26863 1.17025,0 1.46909,-0.54659 1.46909,-2.66954 0,-1.60679 -0.0114,-1.62859 -0.75554,-1.62859 z m 2.61918,0 c -0.91916,0 -1.06598,0.20984 -1.21725,1.75451 -0.0652,0.66586 8.8e-4,1.20046 0.14272,1.20046 0.14077,0 0.29036,-0.51377 0.33579,-1.1417 0.0687,-0.94908 0.18592,-1.15428 0.68837,-1.22564 0.55116,-0.0783 0.60443,0.0223 0.60443,1.14169 0,1.51801 0.42404,1.60788 0.67158,0.14272 0.22018,-1.30324 -0.15054,-1.87204 -1.22564,-1.87204 z m 3.09768,0 c -0.97883,0 -1.2417,0.25146 -1.36835,1.31798 -0.11664,0.98219 0.12137,1.58885 0.65479,1.69575 0.25162,0.0504 0.75553,0.0436 1.12491,-0.008 0.63581,-0.0896 0.66636,-0.16496 0.57924,-1.54464 -0.0919,-1.45543 -0.0922,-1.46071 -0.99059,-1.46071 z m -0.23506,0.53726 c 0.47178,0 0.95345,0.91975 0.75554,1.43552 -0.18706,0.48736 -0.73059,0.72744 -1.10811,0.48689 -0.39398,-0.25103 -0.0867,-1.92241 0.35257,-1.92241 z m -5.91833,0.13432 c 0.61774,0 0.86224,1.04484 0.37777,1.62859 -0.35579,0.4287 -0.95975,0.50823 -1.17527,0.1595 -0.30065,-0.48646 0.28002,-1.78809 0.7975,-1.78809 z m -2.76189,2.5856 c -0.0219,0.006 -0.028,0.12653 -0.0419,0.36937 -0.0172,0.2969 -0.27535,0.69691 -0.57085,0.88145 -0.29549,0.18455 -0.53726,0.50998 -0.53726,0.73035 0,0.24825 -0.28103,0.42 -0.73874,0.44493 l -0.73875,0.042 0.73875,0.10913 c 0.72336,0.10958 1.42715,0.915 1.09132,1.25083 -0.24167,0.24167 -0.0174,0.21083 0.94861,-0.12592 0.46529,-0.1622 0.84788,-0.40857 0.84788,-0.54566 0,-0.13709 0.33243,-0.0808 0.73874,0.12592 1.11048,0.56493 1.94759,0.78439 1.94759,0.50369 0,-0.13764 -0.54398,-0.45965 -1.20885,-0.71356 -0.66487,-0.25392 -1.20885,-0.63847 -1.20885,-0.84787 0,-0.20941 -0.23,-0.60778 -0.51208,-0.88986 -0.28208,-0.28207 -0.56785,-0.73539 -0.63801,-1.00737 -0.0574,-0.22246 -0.0957,-0.33363 -0.11752,-0.3274 z m -18.30905,0.54566 c -0.12391,-0.004 -0.24918,-0.004 -0.37776,0.008 l -0.86467,0.084 -0.0756,2.08192 c -0.0496,1.31507 0.0247,2.0819 0.20148,2.0819 0.15396,0 0.27703,-0.34183 0.27703,-0.75553 0,-0.93903 0.44025,-1.39354 1.34317,-1.39354 0.38414,0 0.84686,-0.1417 1.02416,-0.31899 0.25072,-0.25073 0.319,-0.0119 0.319,1.07453 0,0.76829 0.12089,1.39353 0.26864,1.39353 0.14775,0 0.26863,-0.52763 0.26863,-1.17527 0,-0.97039 0.0974,-1.20477 0.56245,-1.32638 0.84853,-0.22189 0.38526,-0.64994 -0.55406,-0.51208 -0.6165,0.0905 -0.81429,0.0174 -0.81429,-0.30221 0,-0.51375 -0.71082,-0.91435 -1.57822,-0.94022 z m -0.0252,0.49529 c 0.72456,0 1.36632,0.59807 1.01577,0.94862 -0.066,0.066 -0.50438,0.19993 -0.97379,0.29381 -0.78547,0.1571 -0.85627,0.11172 -0.85627,-0.53726 0,-0.60605 0.11442,-0.70517 0.81429,-0.70517 z m 5.72526,1.15009 c 0.41529,-0.0266 0.82833,0.28058 0.93182,0.8059 0.0458,0.23276 -0.15072,0.5522 -0.43653,0.70517 -0.40877,0.21876 -0.62511,0.16215 -1.00738,-0.26024 -0.45759,-0.50564 -0.45568,-0.56009 -0.0252,-0.99059 0.16081,-0.1608 0.3485,-0.24813 0.53727,-0.26024 z m 5.29711,0.19308 c -0.13903,0 -0.32842,0.12089 -0.41974,0.26863 -0.0913,0.14776 0.0215,0.26864 0.25185,0.26864 0.23034,0 0.41974,-0.12088 0.41974,-0.26864 0,-0.14774 -0.11282,-0.26863 -0.25185,-0.26863 z m 3.47545,0.0504 c -0.591,0.008 -1.07453,0.12152 -1.07453,0.25185 0,0.13033 0.48353,0.23505 1.07453,0.23505 0.59099,0 1.07453,-0.11336 1.07453,-0.25184 0,-0.13849 -0.48354,-0.24322 -1.07453,-0.23506 z m -4.83541,0.25185 c -0.12172,0 -0.24344,0.0215 -0.33579,0.0588 -0.18468,0.0745 -0.0336,0.13432 0.33579,0.13432 0.36937,0 0.52048,-0.0598 0.3358,-0.13432 -0.0923,-0.0373 -0.21407,-0.0588 -0.3358,-0.0588 z m -0.55405,1.07453 c -0.0793,0.01 -0.13937,0.0302 -0.1679,0.0588 -0.0801,0.0801 0.25915,0.26011 0.75554,0.40295 1.19455,0.34377 1.57822,0.363 1.57822,0.0672 0,-0.23979 -1.61052,-0.59708 -2.16586,-0.52887 z m 13.34773,0.0336 c -0.0403,0.007 -0.0773,0.0186 -0.10074,0.042 -0.0675,0.0675 -0.0386,0.25376 0.0588,0.41134 0.21432,0.34678 0.94861,0.37825 0.94861,0.042 0,-0.23828 -0.62451,-0.54609 -0.90664,-0.4953 z m 1.69575,0.73874 c -0.30422,0 -0.47748,0.12089 -0.38616,0.26863 0.0913,0.14776 0.34115,0.26864 0.55405,0.26864 0.21291,0 0.38616,-0.12088 0.38616,-0.26864 0,-0.14774 -0.24984,-0.26863 -0.55405,-0.26863 z m -6.91732,0.0336 c -0.0219,0.003 -0.042,0.008 -0.0672,0.0168 -0.19391,0.0646 -0.40546,0.27619 -0.4701,0.47011 -0.0672,0.20147 0.0336,0.30221 0.23505,0.23505 0.19392,-0.0646 0.40547,-0.27619 0.47011,-0.47011 0.0588,-0.17629 -0.0146,-0.27479 -0.16789,-0.25184 z m 7.84914,0.35258 c -0.0807,0.0187 -0.10913,0.11245 -0.10913,0.27703 0,0.23332 0.23331,0.41135 0.53726,0.41135 0.2955,0 0.53727,-0.0573 0.53727,-0.12593 0,-0.0687 -0.24177,-0.25319 -0.53727,-0.41134 -0.21441,-0.11475 -0.34742,-0.16986 -0.42813,-0.15111 z m 1.36835,0.68838 c -0.1758,-0.005 -0.12455,0.0878 0.10913,0.36937 0.42611,0.51343 0.92349,0.57995 0.76393,0.10074 -0.0615,-0.18469 -0.34267,-0.38255 -0.62122,-0.43653 -0.10954,-0.0212 -0.19324,-0.0317 -0.25184,-0.0336 z m -9.97302,0.10073 c -0.0321,-10e-4 -0.0638,0.0108 -0.10074,0.0336 -0.14775,0.0913 -0.26863,0.28071 -0.26863,0.41973 0,0.13904 0.12088,0.25185 0.26863,0.25185 0.14775,0 0.26864,-0.1894 0.26864,-0.41974 0,-0.17276 -0.0716,-0.28116 -0.1679,-0.28542 z m 0.77232,0.1679 c -0.58185,-0.006 -0.36385,0.491 0.26864,0.61282 1.05677,0.20354 1.27601,0.20109 1.27601,-0.042 0,-0.23345 -0.88669,-0.56364 -1.54465,-0.57084 z m 10.92163,0.34419 c -0.0942,0.002 -0.18345,0.0229 -0.26863,0.0755 -0.20726,0.12809 -0.18692,0.25875 0.0672,0.41974 0.47954,0.30384 0.76393,0.29557 0.76393,-0.0168 0,-0.28076 -0.27981,-0.48305 -0.56246,-0.4785 z m -8.80614,0.19308 c -0.62308,0 -0.27309,0.4367 0.57085,0.71355 1.07311,0.35205 2.54971,0.44088 2.19943,0.13432 -0.27325,-0.23915 -2.26493,-0.84787 -2.77028,-0.84787 z m -3.39989,0.53726 c -0.14833,0.003 -0.39258,0.19805 -0.60443,0.53727 -0.18454,0.2955 -0.23697,0.53727 -0.11752,0.53727 0.27985,0 0.86466,-0.57715 0.86466,-0.85627 0,-0.14843 -0.0537,-0.21974 -0.14271,-0.21827 z m 13.24699,0.0168 c -0.13618,-0.002 -0.20987,0.0777 -0.20987,0.23506 0,0.13691 0.21155,0.29507 0.47011,0.35258 0.63809,0.14193 0.80996,-0.039 0.3274,-0.34419 -0.25342,-0.16027 -0.45147,-0.24188 -0.58764,-0.24345 z m 1.50267,0.52048 c -0.22162,0 -0.32637,0.12089 -0.23506,0.26863 0.0913,0.14775 0.34923,0.26864 0.57085,0.26864 0.22161,0 0.32637,-0.12089 0.23505,-0.26864 -0.0913,-0.14774 -0.34922,-0.26863 -0.57084,-0.26863 z m -7.46298,0.0251 c -0.97333,-0.0333 -0.69749,0.27557 0.60443,0.67998 1.11092,0.34508 1.42492,0.33736 1.41872,-0.042 -0.005,-0.30953 -0.92499,-0.60047 -2.02315,-0.63801 z m 8.85651,0.64641 c -0.19701,0.0295 -0.21953,0.25057 0.0252,0.4953 0.25673,0.25673 0.62961,0.21447 0.62961,-0.0672 0,-0.13194 -0.18133,-0.3095 -0.40295,-0.39455 -0.10237,-0.0393 -0.18617,-0.0434 -0.25184,-0.0336 z m -5.67488,0.18469 c -0.67728,4.4e-4 -0.39176,0.3817 0.75553,0.66319 1.56626,0.38427 1.81328,0.39855 1.81328,0.10913 0,-0.27764 -0.44595,-0.43903 -1.94759,-0.70517 -0.26053,-0.0462 -0.46492,-0.0673 -0.62122,-0.0671 z m -11.37495,0.22666 c -0.0663,0.004 -0.15866,0.0444 -0.27703,0.11752 -0.15757,0.0974 -0.28173,0.37977 -0.27702,0.62961 0.008,0.39883 0.0591,0.38734 0.40294,-0.0671 0.31325,-0.41406 0.34996,-0.6908 0.15111,-0.67998 z m 18.16634,0.0504 c -0.047,8.8e-4 -0.0816,0.0144 -0.10913,0.042 -0.11005,0.11005 -0.0243,0.30747 0.19308,0.44492 0.65401,0.41361 0.94724,0.29245 0.46171,-0.19308 -0.18732,-0.18731 -0.40472,-0.29638 -0.54566,-0.29381 z m 1.43551,0.51209 c -0.0762,-0.01 -0.14497,0.0107 -0.19308,0.0588 -0.0788,0.0788 -0.0638,0.27056 0.0336,0.42814 0.21887,0.35411 0.67999,0.37688 0.67999,0.0336 0,-0.23771 -0.29195,-0.49145 -0.52048,-0.52048 z m -4.54998,0.29382 c -0.19382,0.001 -0.30221,0.0617 -0.30221,0.17629 0,0.16095 0.33243,0.3637 0.73874,0.45331 0.40631,0.0896 1.04095,0.26301 1.41033,0.38616 0.92812,0.30947 1.34317,0.31229 1.34317,0.008 0,-0.23444 -0.60288,-0.44627 -2.7535,-0.9654 -0.1736,-0.0419 -0.32024,-0.0596 -0.43653,-0.0588 z m 14.50621,0.28542 c -0.19052,0.0203 -0.34978,0.12813 -0.57924,0.33579 -0.88563,0.80149 -0.66904,1.4293 0.69677,2.01475 0.89294,0.38276 1.20265,0.65661 1.1333,0.99898 -0.0979,0.48336 -0.63963,0.54208 -1.75452,0.19309 -0.3396,-0.10631 -0.60442,-0.0783 -0.60442,0.0671 0,0.1424 0.27199,0.39373 0.60442,0.55406 2.22111,1.0712 3.36356,-1.0914 1.17528,-2.22462 -1.21931,-0.63143 -1.20321,-1.09953 0.0336,-1.01578 1.09652,0.0743 1.12507,-0.28866 0.0588,-0.73034 -0.35161,-0.14564 -0.5734,-0.21342 -0.76393,-0.19308 z m -8.74738,0.0588 c -0.19702,0.0295 -0.21953,0.25057 0.0252,0.49529 0.25673,0.25674 0.62961,0.21448 0.62961,-0.0671 0,-0.13195 -0.18132,-0.30951 -0.40295,-0.39456 -0.10237,-0.0393 -0.18617,-0.0434 -0.25184,-0.0336 z M 144.57,43.010019 c -0.14833,0.003 -0.39258,0.19805 -0.60443,0.53726 -0.18454,0.2955 -0.23698,0.53727 -0.11753,0.53727 0.27986,0 0.86467,-0.57715 0.86467,-0.85626 0,-0.14843 -0.0537,-0.21975 -0.14271,-0.21827 z m 19.92085,0.53726 c -0.0937,0 -0.16789,0.11269 -0.16789,0.25185 0,0.13916 0.5742,0.42355 1.276,0.62961 1.23705,0.36322 1.96195,0.33545 1.50267,-0.0588 -0.21235,-0.18227 -2.24434,-0.8227 -2.61078,-0.8227 z m 3.02213,0 c -0.14775,0 -0.19205,0.12089 -0.10074,0.26864 0.0913,0.14775 0.28878,0.26863 0.43653,0.26863 0.14775,0 0.19205,-0.12088 0.10074,-0.26863 -0.0913,-0.14775 -0.28878,-0.26864 -0.43653,-0.26864 z m 9.74636,0.67999 c -0.0227,0.005 -0.0395,0.0143 -0.0588,0.0336 -0.1542,0.1542 -0.0261,0.7889 0.33579,1.64538 0.55187,1.30623 0.56064,1.41775 0.13432,1.88883 -0.24922,0.27539 -0.38246,0.56615 -0.29382,0.65479 0.40085,0.40085 0.89325,-0.23776 1.41872,-1.83846 0.62829,-1.91386 0.68478,-2.2582 0.34419,-2.2582 -0.12638,0 -0.3547,0.39288 -0.50369,0.87306 l -0.26863,0.87306 -0.46172,-1.04095 c -0.24717,-0.56284 -0.48732,-0.86746 -0.64639,-0.83109 z m -5.85117,0.44492 c 0.51026,0.0121 1.06565,0.66166 0.88145,1.14169 -0.0894,0.23308 -0.46547,0.41974 -0.83948,0.41974 -0.54851,0 -0.67998,-0.13147 -0.67998,-0.67998 0,-0.37401 0.18666,-0.75004 0.41974,-0.83947 0.0686,-0.0263 0.14537,-0.0437 0.21827,-0.042 z m -27.90431,0.008 c -0.0821,-0.002 -0.25026,0.18369 -0.39456,0.45332 -0.16502,0.30835 -0.18759,0.56245 -0.0504,0.56245 0.27609,0 0.65813,-0.81097 0.47011,-0.99898 -0.008,-0.008 -0.0135,-0.0166 -0.0252,-0.0168 z m -0.88985,1.56143 c -0.20037,0.0193 -0.58108,0.54296 -0.58764,0.86467 -0.002,0.11081 0.11151,0.20147 0.24345,0.20147 0.29793,0 0.63136,-0.82934 0.41974,-1.04095 -0.0197,-0.0197 -0.0469,-0.028 -0.0756,-0.0252 z m -0.75553,1.42712 c -0.0321,0.006 -0.0638,0.0192 -0.10074,0.0419 -0.14775,0.0913 -0.26863,0.28878 -0.26863,0.43653 0,0.14775 0.12088,0.19205 0.26863,0.10074 0.14775,-0.0913 0.26863,-0.28878 0.26863,-0.43653 0,-0.11081 -0.0716,-0.16133 -0.16789,-0.14271 z m -2.96337,3.93717 c 0.54987,0 1.01728,0.66819 0.82269,1.17527 -0.21059,0.54881 -1.14498,0.57191 -1.35156,0.0336 -0.21281,-0.55457 0.0715,-1.20885 0.52887,-1.20885 z m 1.07454,3.60137 c -0.0384,0.006 -0.0825,0.0204 -0.11753,0.0419 -0.13995,0.0865 -0.17884,0.2714 -0.0923,0.41135 0.0865,0.13995 0.2714,0.17884 0.41134,0.0923 0.13995,-0.0865 0.17884,-0.27139 0.0923,-0.41134 -0.0649,-0.10496 -0.17861,-0.15195 -0.29381,-0.13432 z m -2.11549,0.20148 c -0.1387,-0.004 -0.29284,-0.004 -0.46171,0.008 -1.07111,0.0775 -1.1417,0.13377 -1.1417,0.88985 0,0.68435 0.1418,0.85139 0.94022,1.10811 0.60082,0.19318 0.97217,0.49661 1.02416,0.83948 0.10406,0.68624 -0.57402,0.94657 -1.4355,0.55406 -0.74126,-0.33774 -1.28037,-0.0682 -0.6548,0.32739 0.6049,0.38255 2.03996,0.30901 2.40091,-0.12592 0.17718,-0.21349 0.27494,-0.65671 0.22666,-0.98219 -0.0887,-0.59811 -0.28114,-0.75269 -1.64538,-1.2928 -0.96483,-0.38199 -0.69081,-0.83108 0.50369,-0.83108 0.5084,0 0.92343,-0.12918 0.92343,-0.28543 0,-0.12606 -0.26389,-0.19947 -0.67998,-0.20987 z m 2.00635,1.04934 c -0.20158,0.0174 -0.20701,0.43462 -0.0756,1.54465 0.0908,0.76698 0.26739,1.39353 0.39456,1.39353 0.33562,0 0.28935,-2.61909 -0.0504,-2.82904 -0.1148,-0.071 -0.20144,-0.11494 -0.26864,-0.10914 z m 56.1612,9.48613 c -0.33621,0.0205 -0.68589,0.10778 -0.95701,0.28542 -1.03579,0.67868 -0.78842,1.53868 0.55406,1.91401 0.77364,0.21631 1.07454,0.44493 1.07454,0.8143 0,0.4442 -0.17533,0.50428 -1.30959,0.44492 -1.14006,-0.0597 -1.26583,-0.0161 -0.9738,0.3358 0.40151,0.48378 2.1789,0.541 2.63597,0.0839 0.17729,-0.1773 0.319,-0.57958 0.319,-0.88985 0,-0.73959 -0.48999,-1.20884 -1.26762,-1.20884 -0.72738,0 -1.13421,-0.75353 -0.58763,-1.09133 0.20498,-0.12669 0.64853,-0.1593 0.98219,-0.0756 0.3517,0.0883 0.60442,0.0269 0.60442,-0.14271 0,-0.33634 -0.51418,-0.50426 -1.07453,-0.47011 z m -94.05531,0.0336 c -0.61608,-0.0426 -1.24633,0.31058 -1.56983,0.91503 -0.31802,0.59423 0.0879,1.03215 1.25082,1.34317 0.49753,0.13306 0.75554,0.37267 0.75554,0.71356 0,0.43872 -0.1778,0.5137 -1.15009,0.47011 -1.19404,-0.0536 -1.313536,0.30417 -0.23505,0.70516 1.00398,0.37329 2.05672,-0.23606 2.05672,-1.19206 0,-0.72328 -0.43051,-1.12458 -1.34317,-1.25082 -1.03025,-0.14252 -0.86011,-0.90142 0.20148,-0.89825 0.98077,0.003 1.18632,-0.53053 0.29382,-0.76393 -0.0868,-0.0227 -0.17223,-0.0359 -0.26024,-0.0419 z m 97.41323,1.25922 c -0.14278,0.007 -0.31012,0.0682 -0.52888,0.1679 -0.53059,0.24175 -0.68317,0.50092 -0.67997,1.18366 0.005,0.98317 0.21211,1.39801 0.8059,1.62859 0.54951,0.2134 1.0944,0.11513 1.15848,-0.20987 0.0291,-0.14774 -0.29009,-0.30498 -0.70516,-0.35258 -0.43342,-0.0497 -0.70758,-0.22123 -0.6464,-0.40295 0.0586,-0.17402 0.42872,-0.28263 0.82269,-0.23505 0.9712,0.1173 1.23958,-0.61567 0.49529,-1.35996 -0.30066,-0.30066 -0.484,-0.43158 -0.72195,-0.41974 z m -94.52542,0.008 c -0.23588,-0.017 -0.42714,0.0926 -0.70516,0.34419 -0.59456,0.53807 -0.68447,1.23887 -0.26024,2.03154 0.17894,0.33435 0.56204,0.52048 1.07453,0.52048 1.00333,0 1.05086,-0.47348 0.0588,-0.58763 -1.02132,-0.11752 -0.92884,-0.60266 0.13431,-0.70517 1.09136,-0.10522 1.21328,-0.9829 0.20148,-1.4439 -0.20776,-0.0947 -0.36216,-0.14931 -0.50369,-0.15951 z m 0.0504,0.62122 c 0.17031,-0.0208 0.32526,0.0609 0.33579,0.26024 0.008,0.14775 -0.19009,0.30993 -0.43653,0.36098 -0.28011,0.058 -0.40272,-0.0427 -0.3274,-0.26864 0.0697,-0.20914 0.25783,-0.33182 0.42814,-0.35258 z m 94.32394,0.12594 c 0.30422,0 0.55406,0.0511 0.55406,0.10913 0,0.25483 -0.80527,0.38305 -0.94861,0.15111 -0.0873,-0.1413 0.0903,-0.26024 0.39455,-0.26024 z m -1.53625,3.81124 c -0.46975,0.0905 -1.10554,1.1149 -3.89518,6.262516 -1.0409,1.920727 -2.35456,4.193665 -2.92139,5.053668 -0.56683,0.860002 -1.03256,1.599419 -1.03256,1.636984 0,0.03757 -0.73597,1.382764 -1.63699,2.996942 -0.90101,1.61416 -2.00404,3.603048 -2.45128,4.415664 -0.44724,0.812616 -1.20943,2.142354 -1.68735,2.95497 -0.47792,0.812617 -1.44503,2.565448 -2.14907,3.895186 -0.70404,1.329731 -1.5407,2.780351 -1.86364,3.223601 -1.04657,1.43641 -2.84498,4.74019 -2.70313,4.96972 0.0759,0.12282 5.96872,0.22773 13.09589,0.22666 7.12716,-8.8e-4 16.02308,0.004 19.76974,0.0168 l 6.81658,0.0252 -0.20148,0.73874 c -0.50429,1.83202 -0.37108,3.24437 0.46172,4.91095 0.86735,1.73574 2.15239,2.83297 3.77766,3.22361 1.15864,0.27848 3.42122,0.0985 4.25616,-0.3358 1.29767,-0.67502 2.61338,-1.96982 3.03892,-2.99694 0.60569,-1.46198 0.56224,-4.22553 -0.0839,-5.4818 -1.09385,-2.12656 -3.43183,-3.53245 -5.88476,-3.5426 -1.54846,-0.006 -2.71627,0.46625 -3.89518,1.56982 l -0.75553,0.70518 -0.50369,-0.67159 c -0.27896,-0.36867 -0.97896,-1.57822 -1.55304,-2.68633 -0.57407,-1.10812 -1.86164,-3.404928 -2.86263,-5.104036 -2.8352,-4.812555 -7.44616,-12.914488 -8.02542,-14.103258 -0.648,-1.329839 -2.28739,-4.187538 -4.88577,-8.512325 -0.73875,-1.22958 -1.44406,-2.51385 -1.56983,-2.85423 -0.13158,-0.35608 -0.41077,-0.58426 -0.6548,-0.53727 z m -94.41628,0.41973 c -0.53504,0.004 -0.98235,1.06678 -1.99797,3.02213 -1.986446,3.824488 -4.381276,8.090465 -5.045266,8.999224 -0.32386,0.443246 -0.67182,1.047673 -0.78072,1.343167 -0.10889,0.295499 -0.9547,1.80656 -1.88043,3.357921 -0.92573,1.551356 -2.69695,4.633926 -3.92877,6.850156 -2.1076,3.791889 -2.92921,5.185303 -5.03687,8.545903 -0.47954,0.76459 -0.91873,1.51442 -0.9738,1.66217 -0.0551,0.14774 -0.44731,-0.0403 -0.87306,-0.41974 -1.7181,-1.53103 -2.2537,-1.73376 -4.60874,-1.71254 -2.0053,0.018 -2.32413,0.0965 -3.33274,0.8059 -1.68501,1.18512 -2.51198,2.99919 -2.4261,5.3307 0.0601,1.63142 0.19214,2.03147 1.07454,3.35792 0.75604,1.1365 1.3589,1.68385 2.45967,2.24141 1.9001,0.96241 3.06775,0.94402 5.02849,-0.084 2.79701,-1.46641 3.70081,-3.07544 3.50063,-6.19537 l -0.12592,-2.03993 15.07705,-0.0336 c 8.295486,-0.0156 17.170716,-0.0288 19.719376,-0.0336 3.03198,-0.006 4.63393,-0.10211 4.63393,-0.28543 0,-0.15409 -0.48354,-1.02967 -1.07453,-1.9392 -0.591,-0.90951 -1.07453,-1.76011 -1.07453,-1.88882 0,-0.12872 -2.2046,-3.937429 -4.89417,-8.47035 -2.68958,-4.532925 -5.47848,-9.392103 -6.20376,-10.795712 -0.72527,-1.403609 -2.59998,-4.702413 -4.16382,-7.328657 -1.75206,-2.94233 -2.46612,-4.29455 -3.07249,-4.28974 z m 94.35752,1.1417 c 0.086,0 0.63249,0.81049 1.21724,1.80488 0.58476,0.99439 1.18703,2.008372 1.33478,2.249804 0.14775,0.241437 0.55491,0.97223 0.90664,1.620199 0.35173,0.647964 0.85191,1.47748 1.10811,1.846855 0.2562,0.36937 1.0669,1.819989 1.80488,3.223602 1.25943,2.395377 1.5983,3.00614 2.96336,5.372667 0.29829,0.517121 1.36495,2.390839 2.36734,4.163822 1.00239,1.77298 2.58179,4.505783 3.51742,6.077831 0.93563,1.572051 1.70875,2.962221 1.71254,3.089281 0.004,0.12706 0.42687,0.89838 0.94022,1.70415 0.51333,0.80577 0.93182,1.59774 0.93182,1.7629 0,0.2173 -3.47108,0.29095 -12.55862,0.27703 -15.57378,-0.0238 -25.05007,-0.1291 -25.05007,-0.27703 0,-0.1918 1.66477,-3.20842 2.00635,-3.63494 0.43516,-0.54336 1.97397,-3.180654 3.29076,-5.641305 0.593,-1.108111 1.73737,-3.16316 2.54362,-4.566769 0.80627,-1.403609 2.12031,-3.760868 2.913,-5.238353 0.79269,-1.477485 1.81644,-3.230317 2.27499,-3.895185 0.45855,-0.664869 1.00467,-1.571509 1.21725,-2.014755 0.21257,-0.443241 0.82275,-1.531208 1.35156,-2.4177 0.52881,-0.886488 1.43077,-2.488214 2.00635,-3.559394 0.57559,-1.07118 1.1145,-1.94759 1.20046,-1.94759 z m -94.25679,0.26863 c 0.11752,0 0.71675,0.87642 1.33478,1.94759 0.61803,1.07118 1.91942,3.277335 2.8962,4.902567 0.97679,1.625232 1.85476,3.21282 1.94759,3.525816 0.0928,0.312995 1.0297,1.974854 2.08192,3.69371 1.05221,1.718856 1.91401,3.190092 1.91401,3.273969 0,0.08388 0.36265,0.682147 0.8059,1.326381 0.44325,0.644234 0.8059,1.233928 0.8059,1.309586 0,0.07566 0.4633,0.898104 1.03256,1.830065 1.4911,2.441166 3.81296,6.472397 5.11243,8.881697 l 1.1249,2.08191 -4.37368,0.0336 c -9.37918,0.0809 -25.002116,0.0955 -29.171926,0.0251 l -4.38208,-0.0755 0.86466,-1.53625 c 0.4749,-0.84585 1.01252,-1.71757 1.19206,-1.9392 0.32696,-0.40359 0.64692,-0.96489 2.82066,-4.969715 0.64155,-1.18199 2.00254,-3.599691 3.03052,-5.372671 1.02797,-1.772983 2.16807,-3.767586 2.53523,-4.432455 1.06919,-1.936152 1.70215,-2.99275 2.66115,-4.474426 0.49435,-0.763777 0.89824,-1.45531 0.89824,-1.527852 0,-0.07255 0.5005,-1.014293 1.11651,-2.098702 1.945856,-3.425426 2.921536,-5.177376 3.231996,-5.800806 0.16554,-0.33243 0.40296,-0.60442 0.52047,-0.60442 z m -0.0923,20.441331 c -0.30547,0.02207 -0.61087,0.140757 -0.86466,0.394556 -0.56595,0.565944 -0.52927,1.082534 0.11752,1.729332 0.81313,0.813129 1.52148,0.66927 2.09871,-0.428137 0.48564,-0.923311 -0.43514,-1.761885 -1.35157,-1.695751 z m 94.29876,0.285423 c -0.0849,-0.0018 -0.16879,-2.68e-4 -0.26024,0.0084 -0.80654,0.0773 -0.91117,0.180898 -0.99058,1.015773 -0.062,0.652076 0.0606,1.031821 0.39455,1.276009 0.66061,0.483045 1.08742,0.432047 1.71254,-0.19308 0.94086,-0.940861 0.41789,-2.083013 -0.85627,-2.107097 z m -6.66547,4.021109 c -0.65677,-0.0018 -1.14442,0.516635 -1.02416,1.343167 0.0607,0.417211 0.34306,0.673131 0.92343,0.822691 0.94448,0.24339 1.57866,0.86261 1.31798,1.2844 -0.22253,0.36006 -1.66738,0.35832 -1.88883,0 -0.0928,-0.15016 -0.28819,-0.19563 -0.42814,-0.10913 -0.34726,0.21461 -0.0425,0.64208 0.6548,0.92343 0.31732,0.12803 0.73035,0.24247 0.91503,0.25184 0.39365,0.02 1.41033,-0.93626 1.41033,-1.32638 0,-0.44332 -1.01253,-1.32064 -1.73773,-1.50266 -0.70987,-0.17817 -0.92126,-0.783667 -0.34418,-0.990589 0.18468,-0.06622 0.55987,-0.0054 0.83108,0.134318 0.69593,0.358606 0.95512,-0.02791 0.3274,-0.486898 -0.32657,-0.238799 -0.65847,-0.343285 -0.95701,-0.344189 z m 13.17984,0.02519 c -0.0258,-0.0054 -0.0536,-0.0018 -0.084,0.0084 -0.32985,0.110432 -0.35298,2.653758 -0.0336,3.760868 0.20339,0.70501 0.72711,0.57408 0.53726,-0.13432 -0.0891,-0.33243 -0.16574,-1.31239 -0.16789,-2.174248 -0.003,-0.991632 -0.0711,-1.422607 -0.25185,-1.460695 z m -10.39277,0.042 c -0.0321,-0.0013 -0.0638,0.01075 -0.10073,0.03357 -0.14775,0.09132 -0.26864,0.280714 -0.26864,0.419741 0,0.139027 0.12089,0.251842 0.26864,0.251842 0.14775,0 0.26863,-0.189398 0.26863,-0.419737 0,-0.172761 -0.0716,-0.281157 -0.1679,-0.285427 z M 109.13562,98.5493 c -0.33478,0.09317 -0.18277,3.33661 0.1763,3.76926 0.15687,0.18903 0.30445,0.30914 0.32739,0.26864 0.16595,-0.29296 -0.30813,-4.092322 -0.50369,-4.0379 z m -13.641536,0.100737 c -0.55721,-0.01672 -0.80734,0.112021 -0.99898,0.470113 -0.39413,0.736423 -0.0875,1.35265 0.75553,1.53624 1.25641,0.27363 1.37675,0.35585 1.37675,0.88146 0,0.67692 -0.64911,0.90173 -1.48588,0.52047 -0.74126,-0.33774 -1.28037,-0.0682 -0.6548,0.3274 0.67637,0.42775 2.03189,0.29507 2.52684,-0.25184 0.60632,-0.66999 0.17352,-1.56095 -0.86467,-1.78809 -1.2697,-0.27779 -1.44673,-0.377802 -1.32638,-0.721956 0.0682,-0.19502 0.53289,-0.320557 1.10812,-0.302209 1.29399,0.04125 1.13669,-0.543251 -0.17629,-0.654797 -0.093,-0.0079 -0.18064,-0.01439 -0.26024,-0.01681 z m 12.684536,1.007378 -0.99899,0.08395 c -1.27169,0.106144 -1.89258,1.030335 -1.45229,2.165855 0.25526,0.65834 0.42742,0.73874 1.53625,0.73874 1.02421,0 1.20875,-0.0784 1.07453,-0.42813 -0.0897,-0.23371 -0.1595,-0.90645 -0.1595,-1.49428 z m 87.75082,0.03357 c -0.67526,0 -1.04705,0.155397 -1.24243,0.520475 -0.61878,1.1562 -0.17454,2.43449 0.84787,2.43449 0.26595,0 0.4869,0.18133 0.4869,0.40295 0,0.26864 -0.26863,0.40295 -0.8059,0.40295 -0.87228,0 -1.10003,0.4215 -0.33579,0.62122 0.25856,0.0676 0.53864,0.13396 0.62121,0.1511 0.0826,0.0172 0.38214,-0.13867 0.66319,-0.34418 0.39745,-0.29063 0.52889,-0.79807 0.61282,-2.28339 l 0.10914,-1.905615 z m 6.2877,0 c -1.36993,0 -2.02375,1.178485 -1.35156,2.434485 0.2052,0.38343 0.56768,0.52048 1.37675,0.52048 1.00592,0 1.08043,-0.0499 0.93182,-0.60442 -0.0891,-0.33244 -0.16575,-0.99731 -0.1679,-1.47749 -0.004,-0.785408 -0.0814,-0.873055 -0.78911,-0.873055 z m -98.68084,0.03357 c -0.0647,0.0013 -0.13212,0.0018 -0.20148,0.0084 -0.5106,0.04857 -0.9016,0.183009 -0.86466,0.293815 0.037,0.11082 0.0672,0.76281 0.0672,1.4523 0,0.68949 0.0907,1.16879 0.20148,1.05775 0.11081,-0.11105 0.20147,-0.65056 0.20147,-1.19206 0,-0.87112 0.0774,-0.98219 0.67159,-0.98219 0.59864,0 0.68163,0.12694 0.75553,1.15008 0.0949,1.31357 0.58763,1.27769 0.58763,-0.0419 0,-1.21105 -0.44786,-1.768004 -1.41871,-1.746114 z m 95.18021,0 c -0.0631,0.0031 -0.1249,0.009 -0.19308,0.01681 -0.70842,0.08123 -0.76329,0.170945 -0.83948,1.494275 -0.0467,0.81059 0.0311,1.41032 0.18469,1.41032 0.14697,0 0.30715,-0.51376 0.35258,-1.14169 0.0677,-0.93507 0.18118,-1.14169 0.62121,-1.14169 0.44003,0 0.55356,0.20662 0.62122,1.14169 0.1088,1.50372 0.58763,1.47647 0.58763,-0.0336 0,-1.27571 -0.38784,-1.789753 -1.33477,-1.746119 z m -98.05124,0.100738 c -0.726936,0 -1.013206,0.155611 -1.326366,0.713557 -0.55639,0.99127 -0.064,2.10709 0.931816,2.10709 1.00518,0 0.67956,0.65127 -0.377766,0.75554 -0.47161,0.0465 -0.79056,0.19761 -0.70516,0.33579 0.0854,0.13818 0.5091,0.25184 0.940216,0.25184 1.12772,0 1.6562,-0.92423 1.55304,-2.72831 l -0.084,-1.435507 z m -2.426086,0.134319 c -0.29628,0 -0.3784,2.223988 -0.0924,2.510038 0.32046,0.32046 0.36098,0.19508 0.36098,-1.16687 0,-0.73874 -0.12089,-1.343168 -0.26863,-1.343168 z m 95.364896,0 c -0.14775,0 -0.26864,0.604428 -0.26864,1.343168 0,0.73874 0.12089,1.34316 0.26864,1.34316 0.14775,0 0.26863,-0.60442 0.26863,-1.34316 0,-0.73874 -0.12088,-1.343168 -0.26863,-1.343168 z m -93.03115,0.268628 c 0.49355,0 0.74995,1.26732 0.35258,1.74612 -0.18233,0.2197 -0.42037,0.40295 -0.52047,0.40295 -0.33455,0 -0.822696,-0.63972 -0.822696,-1.07453 0,-0.5167 0.515106,-1.07454 0.990586,-1.07454 z m 101.21607,0.0168 c 0.28242,0.0139 0.5695,0.36866 0.62962,0.99059 0.0696,0.72039 -0.008,0.87306 -0.45332,0.87306 -0.69753,0 -0.93267,-0.40288 -0.72196,-1.24243 0.10905,-0.43449 0.32601,-0.63201 0.54566,-0.62122 z m -94.97034,0.0252 c 0.0381,1.8e-4 0.0771,0.003 0.11753,0.008 0.43642,0.0623 0.57084,0.27306 0.57084,0.88985 0,0.62167 -0.13078,0.82596 -0.57924,0.88985 -0.38357,0.0546 -0.63927,-0.0967 -0.74713,-0.43653 -0.23631,-0.74455 0.0662,-1.3542 0.638,-1.35156 z m 88.93449,0.0336 c 0.35417,-0.0204 0.58003,0.42851 0.49529,1.15009 -0.0995,0.84758 -0.49065,1.08757 -0.9738,0.60442 -0.44819,-0.44819 -0.41278,-1.15757 0.0839,-1.56982 0.14124,-0.11721 0.2765,-0.17786 0.39456,-0.18469 z m -117.451206,4.28135 c 1.9549,-0.044 3.38298,0.72993 4.55838,2.46807 0.71913,1.06344 0.87306,1.55269 0.87306,2.75349 0,2.53496 -1.42947,4.48586 -3.8784,5.29712 -2.03066,0.67271 -2.78438,0.5074 -4.54159,-0.9654 -2.28141,-1.91216 -2.89825,-4.46961 -1.66217,-6.90892 0.86494,-1.70688 2.08952,-2.46411 4.25617,-2.62757 0.13512,-0.0102 0.26422,-0.0139 0.39455,-0.0168 z m 144.096696,0.1679 c 1.4833,-0.0145 3.03659,0.74249 4.31493,2.15746 1.09391,1.21083 1.42289,2.39114 1.19206,4.34011 -0.18281,1.54356 -0.67195,2.37533 -2.01475,3.39989 -0.83072,0.63384 -1.28894,0.76134 -2.87102,0.82269 -3.20488,0.12428 -5.1478,-1.50774 -5.66649,-4.75145 -0.33295,-2.08217 1.41548,-4.84152 3.60137,-5.69168 0.4648,-0.18077 0.94947,-0.27219 1.4439,-0.27702 z m -145.935156,3.26557 0.0588,1.9476 c 0.0333,1.07117 0.12837,2.06848 0.20987,2.21622 0.0815,0.14775 0.21059,-0.1517 0.28542,-0.66318 0.11419,-0.78053 0.26932,-0.958 0.9654,-1.09972 1.1793,-0.24011 1.4523,-0.46632 1.4523,-1.20046 0,-0.78271 -0.70059,-1.20046 -2.00635,-1.20046 z m 95.893776,0.008 c -0.51609,-0.0154 -0.94944,0.31332 -1.15009,0.95701 -0.20439,0.65571 0.23739,1.12689 1.35996,1.42712 0.49752,0.13305 0.75553,0.37266 0.75553,0.71355 0,0.43823 -0.17571,0.51315 -1.14169,0.47011 -1.08434,-0.0483 -1.52957,0.25366 -0.80591,0.54566 0.64324,0.25955 1.98005,0.17743 2.30018,-0.14271 0.1773,-0.1773 0.319,-0.57958 0.319,-0.88985 0,-0.73959 -0.48999,-1.20885 -1.26761,-1.20885 -0.6955,0 -1.14654,-0.74345 -0.63801,-1.05774 0.17883,-0.11054 0.65259,-0.1536 1.04935,-0.0923 0.69372,0.10709 0.70294,0.0938 0.20148,-0.31061 -0.334,-0.26939 -0.67254,-0.40214 -0.98219,-0.41135 z m 2.61078,0.0923 c -0.0963,0.004 -0.1679,0.11267 -0.1679,0.28542 0,0.23035 0.12089,0.41974 0.26863,0.41974 0.14776,0 0.26864,-0.11281 0.26864,-0.25184 0,-0.13903 -0.12088,-0.32842 -0.26864,-0.41974 -0.0369,-0.0228 -0.0686,-0.035 -0.10073,-0.0336 z m 46.28052,0.084 c -0.23398,0.006 -0.45848,0.0487 -0.6464,0.13432 -1.29159,0.58849 -0.62099,2.0987 0.93182,2.0987 0.75859,0 1.03289,0.79182 0.42813,1.23403 -0.33833,0.24741 -0.67276,0.26862 -1.15848,0.084 -0.74066,-0.2816 -1.02579,-0.17385 -0.74713,0.27703 0.26223,0.42432 2.17885,0.3489 2.55201,-0.10074 0.64082,-0.77213 0.22173,-1.60327 -0.99898,-1.98956 -1.22193,-0.38667 -1.36515,-0.59378 -0.75553,-1.09972 0.28129,-0.23345 0.53104,-0.24357 0.92343,-0.0336 0.35693,0.19102 0.59454,0.19579 0.70516,0.0168 0.21473,-0.34744 -0.53209,-0.64067 -1.23403,-0.62122 z m -95.44885,0.0252 c -0.34976,0.007 -0.67773,0.0817 -0.83948,0.24345 -0.21489,0.21492 -0.39456,0.47871 -0.39456,0.58766 0,0.47228 0.73395,1.13707 1.47749,1.33478 0.55731,0.14819 0.83524,0.40631 0.89824,0.83948 0.087,0.59784 0.0354,0.61465 -1.14169,0.45332 -1.41981,-0.19461 -1.53133,-0.0836 -0.49529,0.4785 0.4063,0.22042 0.85962,0.40161 1.00737,0.40295 0.57259,0.005 1.20885,-0.74847 1.20885,-1.42712 0,-0.58053 -0.20367,-0.78652 -1.09132,-1.14169 -0.74681,-0.29881 -1.05664,-0.57388 -0.99059,-0.87306 0.0529,-0.23964 0.21361,-0.41782 0.35258,-0.39455 0.13898,0.0233 0.4563,0.0837 0.70516,0.13431 0.24888,0.0506 0.46966,-0.0286 0.4869,-0.17629 0.0344,-0.29494 -0.60073,-0.47353 -1.18366,-0.46171 z m 2.52683,0.0588 c -0.14775,0 -0.26863,0.12089 -0.26863,0.26863 0,0.14775 0.12088,0.26863 0.26863,0.26863 0.14775,0 0.26864,-0.12088 0.26864,-0.26863 0,-0.14774 -0.12089,-0.26863 -0.26864,-0.26863 z m -50.620626,0.31061 c 0.15304,-0.004 0.33312,0.0243 0.53727,0.0755 0.73923,0.18553 0.87187,0.81854 0.22666,1.06614 -0.84647,0.32482 -1.4523,0.17225 -1.4523,-0.36098 0,-0.50774 0.22925,-0.76919 0.68837,-0.78071 z m 145.700106,0.76392 c -0.33129,0 -0.32013,0.12299 0.15111,1.25083 0.46132,1.1041 0.52949,2.24141 0.13431,2.24141 -0.14775,0 -0.26863,0.18729 -0.26863,0.41974 0,0.24922 0.18269,0.38701 0.44492,0.33579 0.39404,-0.077 0.73964,-0.83684 1.54465,-3.37471 0.30237,-0.95327 -0.33162,-0.72273 -0.73874,0.26864 l -0.35259,0.87305 -0.33579,-1.00737 c -0.18406,-0.55406 -0.44295,-1.00738 -0.57924,-1.00738 z m -142.266626,0.0419 c -0.087,-0.004 -0.18536,-0.004 -0.28543,0.008 -0.66436,0.0776 -0.73055,0.18928 -0.76393,1.2928 -0.0201,0.66487 0.0144,1.3055 0.0756,1.41872 0.26082,0.48238 0.61282,-0.18886 0.61282,-1.16686 0,-0.76196 0.11293,-1.05774 0.40295,-1.05774 0.22162,0 0.40295,-0.12786 0.40295,-0.28543 0,-0.11817 -0.18395,-0.1967 -0.44492,-0.20987 z m 47.212326,0.22667 c -0.13405,0 -0.23036,0.60442 -0.20986,1.34316 0.0205,0.73875 0.12989,1.34317 0.24345,1.34317 0.11355,0 0.20987,-0.60442 0.20987,-1.34317 0,-0.73874 -0.1094,-1.34316 -0.24346,-1.34316 z m 46.69187,0 c -0.13476,0 -0.24345,0.60442 -0.24345,1.34316 0,1.25853 0.28535,1.70467 0.67998,1.06614 0.23557,-0.38115 -0.13247,-2.4093 -0.43653,-2.4093 z m -72.43031,26.58632 c -1.62172,0.0423 -3.253806,0.75079 -4.600346,2.10709 -1.27139,1.28061 -1.73258,2.38335 -1.72933,4.13864 0.005,2.69741 2.04663,5.61086 4.222576,6.01907 0.48569,0.0911 0.94756,0.26221 1.02417,0.38616 0.14121,0.22849 -2.804316,5.66116 -4.558376,8.40319 -0.52679,0.8235 -0.9654,1.57546 -0.9654,1.67056 0,0.0951 -0.21953,0.48928 -0.49529,0.88146 -0.27577,0.39217 -1.14084,1.92241 -1.92241,3.39989 -0.78158,1.47748 -1.80288,3.23032 -2.2666,3.89519 -0.46371,0.66486 -1.19409,1.87372 -1.62019,2.68633 -0.4261,0.81262 -1.67585,3.04899 -2.77868,4.96972 -1.10283,1.92073 -2.24751,3.91534 -2.54363,4.43246 -1.43313,2.50275 -2.07351,3.73821 -2.07351,4.00432 0,0.20461 3.78644,0.31202 12.69293,0.36097 18.468776,0.10151 27.713556,0.001 27.811966,-0.29382 0.0467,-0.1402 -0.44773,-1.08579 -1.09972,-2.09869 -0.65199,-1.01291 -1.38953,-2.20112 -1.63698,-2.64437 -0.59597,-1.0675 -1.30079,-2.26755 -3.29076,-5.58254 -0.91071,-1.51709 -2.52123,-4.32831 -3.57619,-6.24573 -1.05495,-1.91741 -2.63379,-4.69269 -3.51742,-6.17017 -0.88363,-1.47749 -1.66909,-2.86766 -1.74611,-3.08929 -0.24616,-0.70828 -1.51168,-3.01404 -3.13126,-5.71686 -0.86551,-1.44438 -1.49927,-2.7439 -1.41033,-2.88781 0.0889,-0.14391 0.41122,-0.26023 0.72195,-0.26023 1.78435,0 4.32972,-2.75356 4.6759,-5.06207 0.28197,-1.8803 -0.72593,-4.63182 -2.14067,-5.84278 -1.19112,-1.01955 -2.61536,-1.49798 -4.04629,-1.46069 z m 95.83501,0.21826 c -1.7704,-0.0378 -3.63905,0.72592 -5.12083,2.40931 -1.23701,1.40532 -1.72541,2.92243 -1.49428,4.60874 0.30367,2.21549 2.14881,4.59678 4.08827,5.26354 0.57072,0.1962 1.04096,0.45469 1.04096,0.57924 0,0.25009 -3.13361,6.05419 -4.58356,8.48714 -2.31111,3.87795 -2.80722,4.73323 -3.59297,6.18697 -0.4613,0.85343 -1.04781,1.89708 -1.3012,2.31696 -0.25339,0.41988 -0.9357,1.594 -1.51106,2.61078 -0.57538,1.01679 -1.76954,3.11615 -2.65276,4.66751 -0.88322,1.55136 -1.83879,3.24375 -2.13227,3.76087 -0.75832,1.33613 -2.33616,3.98592 -3.0725,5.1628 -0.34467,0.55089 -0.62961,1.0659 -0.62961,1.14169 0,0.0758 6.6789,0.17169 14.842,0.20987 15.10877,0.0707 25.7611,-0.0283 25.9735,-0.23505 0.18412,-0.17919 -0.80859,-1.97271 -4.13024,-7.48816 -3.8705,-6.42681 -4.6328,-7.75419 -6.21215,-10.74534 -2.05254,-3.88733 -2.24594,-4.23348 -3.08928,-5.59933 -0.44138,-0.71484 -1.36049,-2.3468 -2.03994,-3.62655 -0.67945,-1.27976 -1.83216,-3.31737 -2.56881,-4.5248 -0.73664,-1.20743 -1.27029,-2.30273 -1.18366,-2.44289 0.0866,-0.14016 0.48886,-0.33251 0.89824,-0.41973 2.8262,-0.60216 4.864,-4.20022 4.15542,-7.35385 -0.70555,-3.14018 -3.09577,-4.91451 -5.68327,-4.96972 z m -95.65033,0.66319 c 1.86773,0.004 3.52256,1.11328 4.41567,3.0641 1.33643,2.91915 0.36735,5.81489 -2.41771,7.20274 -2.25912,1.12577 -4.5898,0.64875 -6.237326,-1.27601 -2.76505,-3.23034 -1.28903,-7.68079 2.921386,-8.81454 0.44749,-0.12049 0.88697,-0.17732 1.31798,-0.17629 z m 95.56638,0.27703 c 1.26051,0.0307 2.43368,0.59566 3.47545,1.67896 1.54056,1.60199 2.00491,3.55256 1.2928,5.42304 -0.50268,1.32032 -1.57375,2.52322 -2.79548,3.14805 -1.91704,0.98044 -4.2235,0.5888 -5.87635,-0.99898 -1.31136,-1.25974 -1.66217,-2.10411 -1.66217,-4.01272 0,-2.04894 0.72675,-3.31933 2.48486,-4.34011 1.06541,-0.61859 2.10049,-0.92209 3.08089,-0.89824 z m 1.41872,2.87942 c -0.14775,0 -0.26863,0.18132 -0.26863,0.40295 0,0.22162 0.12088,0.40295 0.26863,0.40295 0.14775,0 0.26863,-0.18133 0.26863,-0.40295 0,-0.22163 -0.12088,-0.40295 -0.26863,-0.40295 z m -98.81516,0.0336 c -1.456806,0.0471 -1.684636,1.7806 -0.12593,2.28338 1.01431,0.32717 1.39301,1.06955 0.67999,1.34316 -0.24197,0.0928 -0.72826,0.0357 -1.08293,-0.12591 -0.763036,-0.34767 -1.172026,0.0615 -0.470116,0.4701 0.910036,0.5298 2.058476,0.29193 2.493256,-0.52048 0.40737,-0.76117 0.0315,-1.30041 -1.1249,-1.61179 -0.7803,-0.21012 -1.03415,-0.41322 -0.9654,-0.74714 0.0673,-0.32688 0.33564,-0.44086 0.9654,-0.41135 1.07269,0.0503 1.02092,-0.53589 -0.0588,-0.66319 -0.10788,-0.0127 -0.21348,-0.0199 -0.3106,-0.0168 z m 96.3219,0.23505 c 0,0.57639 -1.30966,0.12326 -1.52785,0.38616 -0.57594,0.69398 -0.2022,1.34005 0.99898,1.72093 1.22829,0.38948 1.46348,0.9254 0.60443,1.38514 -0.37369,0.2 -0.6954,0.20232 -1.05775,0.008 -0.30923,-0.1655 -0.58118,-0.17985 -0.67158,-0.0336 -0.0838,0.13553 -8.8e-4,0.31133 0.18469,0.38616 0.1856,0.0748 0.72025,0.13945 1.19205,0.15111 1.77301,0.0438 2.07235,-1.95455 0.34419,-2.30018 -1.04087,-0.20817 -1.46336,-0.72288 -0.94861,-1.15009 0.27787,-0.23061 0.53591,-0.24038 0.90664,-0.042 0.5387,0.28831 0.94592,0.12612 0.69677,-0.27703 -0.0879,-0.14228 -0.72196,-0.58088 -0.72196,-0.23505 z m -93.14027,1.07453 c -0.81701,0.10609 -1.47582,1.22253 -0.78072,2.28339 0.29205,0.44573 0.62009,0.65953 0.87306,0.56245 0.22271,-0.0855 0.51913,-0.1595 0.65479,-0.1595 0.13566,0 0.24345,-0.10412 0.24345,-0.22666 0,-0.12255 -0.25337,-0.21322 -0.57085,-0.20148 -0.31748,0.0117 -0.63256,-0.12592 -0.69676,-0.31061 -0.0792,-0.22787 0.19462,-0.33579 0.84787,-0.33579 1.07677,0 1.14782,-0.14888 0.52887,-1.03256 -0.32929,-0.47012 -0.72835,-0.62746 -1.09971,-0.57924 z m 95.63353,0.26863 c -0.14775,0 -0.26863,0.60443 -0.26863,1.34317 0,0.73874 0.12088,1.34317 0.26863,1.34317 0.14775,0 0.26863,-0.60443 0.26863,-1.34317 0,-0.73874 -0.12088,-1.34317 -0.26863,-1.34317 z m -95.58317,0.26864 c 0.22163,0 0.40295,0.12089 0.40295,0.26863 0,0.14775 -0.18132,0.26864 -0.40295,0.26864 -0.22162,0 -0.40295,-0.12089 -0.40295,-0.26864 0,-0.14774 0.18133,-0.26863 0.40295,-0.26863 z m -1.74611,7.92469 c 0.3517,0 3.08861,4.54563 4.69269,7.79037 0.51128,1.03424 1.65543,3.08929 2.54362,4.56677 0.88819,1.47748 2.11197,3.65342 2.71992,4.8354 0.60794,1.18199 1.27649,2.34395 1.48588,2.57721 0.20938,0.23325 0.37776,0.49018 0.37776,0.57924 0,0.15632 1.63775,4.26383 5.58254,9.46933 l 1.62859,2.68633 -3.93716,0.0672 c -7.16382,0.1222 -25.341956,0.20366 -25.427836,0.11753 -0.0464,-0.0465 -1.96781,-0.0867 -4.27295,-0.0839 -2.30515,0.003 -4.1974,-0.0613 -4.1974,-0.1511 0,-0.22702 1.8529,-3.55081 2.48486,-4.45764 0.28579,-0.4101 0.96846,-1.61895 1.51946,-2.68634 1.32165,-2.5603 2.4629,-4.56641 3.77766,-6.66547 0.59215,-0.9454 1.52101,-2.50668 2.06512,-3.46705 0.5441,-0.96036 1.37501,-2.41098 1.84685,-3.2236 1.33579,-2.30053 6.135766,-10.75748 6.556336,-11.55124 0.11742,-0.22163 0.36865,-0.40295 0.55406,-0.40295 z m 95.56637,0.13431 c 0.16071,0 0.69065,0.69509 1.17527,1.54465 0.48462,0.84955 1.10723,1.90729 1.38515,2.35054 0.27791,0.44325 1.43956,2.49829 2.5772,4.56677 1.13764,2.06848 2.65518,4.73742 3.37471,5.93512 0.71953,1.1977 1.30958,2.25919 1.30958,2.35894 0,0.21886 3.45387,6.24676 5.71686,9.97302 1.81895,2.9951 3.41669,5.76772 3.41669,5.93512 0,0.0604 -8.52241,0.10528 -18.93867,0.10074 -10.41626,-0.005 -18.93866,-0.0603 -18.93866,-0.12592 0,-0.11132 0.34322,-0.73389 1.57822,-2.88781 0.27532,-0.48019 0.94025,-1.65882 1.48588,-2.61918 0.54563,-0.96036 1.10249,-1.92744 1.23404,-2.14907 0.13155,-0.22162 1.1498,-2.06431 2.26659,-4.09666 1.11679,-2.03235 2.22626,-3.90607 2.45967,-4.16382 0.44436,-0.49067 2.23005,-3.62752 4.02111,-7.05163 0.57962,-1.10811 1.11819,-2.07519 1.19206,-2.14907 0.19984,-0.19983 0.61009,-0.88992 2.594,-4.36529 0.99101,-1.73605 1.9296,-3.15645 2.0903,-3.15645 z m -95.75106,20.24825 c -0.19996,0.004 -0.40592,0.0539 -0.58763,0.15111 -0.64506,0.34522 -0.79483,1.83275 -0.24346,2.38412 0.90028,0.90028 2.62215,-0.30895 2.22463,-1.56143 -0.18925,-0.59624 -0.79366,-0.98395 -1.39354,-0.9738 z m 95.34811,0.19308 c -0.18244,0.0431 -0.35376,0.22373 -0.66319,0.57925 -0.68326,0.78503 -0.65041,1.4125 0.10914,2.02315 0.47642,0.38302 1.64836,0.20439 1.98116,-0.30222 0.41186,-0.62695 0.0722,-1.63354 -0.68836,-2.04833 -0.36133,-0.19704 -0.55631,-0.29495 -0.73875,-0.25185 z m -7.06842,4.25617 c -0.88946,0.0935 -1.44691,0.94144 -0.6464,1.81327 0.29801,0.32457 0.80395,0.62679 1.11651,0.67159 0.68655,0.0984 0.89866,0.88763 0.30221,1.11651 -0.23471,0.0901 -0.65728,0.0256 -0.94022,-0.15111 -0.69697,-0.43526 -1.03588,-0.0382 -0.38616,0.45332 0.79378,0.60053 1.65811,0.49349 2.15747,-0.26863 0.41628,-0.63534 0.4159,-0.71219 -0.0336,-1.20885 -0.264,-0.29172 -0.68038,-0.52887 -0.92343,-0.52887 -0.47481,0 -1.08293,-0.49684 -1.08293,-0.88146 0,-0.12952 0.39287,-0.21099 0.87306,-0.18469 1.32522,0.0726 1.45715,0.009 0.88985,-0.41974 -0.44624,-0.33751 -0.92208,-0.45386 -1.32638,-0.41134 z m -92.527456,0.0168 c -0.22162,0 -0.40295,0.12089 -0.40295,0.26864 0,0.14775 0.18133,0.26863 0.40295,0.26863 0.22162,0 0.40295,-0.12088 0.40295,-0.26863 0,-0.14775 -0.18133,-0.26864 -0.40295,-0.26864 z m -2.87941,0.0336 c -0.41994,0.023 -0.58415,0.18139 -0.78072,0.61282 -0.37373,0.82024 0.0483,1.49625 0.94022,1.50267 0.828,0.006 1.3486,0.41957 1.15848,0.91503 -0.18811,0.49021 -1.04693,0.56124 -1.81328,0.15111 -0.40282,-0.21558 -0.52048,-0.19322 -0.52048,0.10913 0,0.21451 0.53495,0.52887 0.3358,0.52887 0.64323,0.25955 1.98003,0.17743 2.30017,-0.14271 0.41141,-0.4114 0.41594,-1.46906 0.008,-1.72094 -0.17178,-0.10617 -0.68554,-0.26768 -1.14169,-0.36097 -1.23505,-0.2526 -1.08552,-0.96309 0.19308,-0.92343 1.32465,0.0411 1.17498,-0.54126 -0.16789,-0.65479 -0.2084,-0.0176 -0.37211,-0.0245 -0.51209,-0.0168 z m 108.595096,0 c -0.20366,-0.0174 -0.21969,0.22012 -0.10074,0.94022 0.0948,0.57388 0.17468,1.49427 0.17629,2.04833 0.002,0.55405 0.0971,1.00737 0.21827,1.00737 0.12116,0 0.21359,-0.86295 0.20147,-1.92241 -0.0159,-1.39107 -0.12478,-1.9668 -0.39456,-2.05672 -0.0368,-0.0123 -0.0716,-0.0143 -0.10073,-0.0168 z m -94.97874,0.0504 c -0.038,0.005 -0.0725,0.0225 -0.11753,0.0504 -0.29503,0.18235 -0.36037,2.32193 -0.10073,3.29077 0.0891,0.33243 0.30162,0.60442 0.4785,0.60442 0.22636,0 0.29056,-0.49719 0.21826,-1.67896 -0.10723,-1.75287 -0.2128,-2.30477 -0.4785,-2.26659 z m 84.47685,0.0168 c -0.0979,0.004 -0.1679,0.11267 -0.1679,0.28542 0,0.47187 0.16428,0.5405 0.39456,0.1679 0.085,-0.13754 0.0326,-0.32694 -0.11753,-0.41974 -0.0375,-0.0232 -0.0765,-0.0347 -0.10913,-0.0336 z m -89.86631,0.9738 c -1.09074,0 -1.17998,0.141 -0.99059,1.55303 0.18785,1.40051 0.61805,1.50233 0.53727,0.12593 -0.0498,-0.848 0.0262,-1.00738 0.4785,-1.00738 0.40039,0 0.56256,0.20532 0.62122,0.8059 0.0433,0.44324 0.14279,0.98297 0.21826,1.20045 0.12082,0.34815 0.166,0.34815 0.38617,0 0.33775,-0.53408 0.31531,-1.16854 -0.0588,-1.98956 -0.24185,-0.53081 -0.50841,-0.68837 -1.19206,-0.68837 z m 3.11447,0.008 c -0.78481,0 -1.17527,0.49354 -1.17527,1.46909 0,0.56057 0.16253,1.08416 0.38616,1.22563 0.21423,0.13553 0.87156,0.50644 1.30119,0.25185 l 0.90664,0 -0.14271,-1.24243 c -0.13862,-1.22981 -0.49621,-1.70414 -1.27601,-1.70414 z m -6.11981,0.0671 c 0,-0.78669 -1.133296,0.47328 -1.133296,1.38515 0,1.00939 0.41704,1.49427 1.267616,1.49427 0.33982,0 0.61282,0.11151 0.61282,0.24345 0,0.35538 -0.80473,0.60129 -1.376746,0.41974 -0.3418,-0.10849 -0.50369,-0.0279 -0.50369,0.26024 0,0.52241 1.303446,0.57112 1.981176,0.0755 0.37891,-0.27706 0.45208,-0.67128 0.38616,-2.07351 -0.0803,-1.70756 -0.0926,-1.73744 -0.87306,-1.79649 -0.13071,-0.01 -0.36098,0.104 -0.36098,-0.008 z m -2.266586,0.0504 c 0,-0.13717 -0.20987,0.52352 -0.20987,1.33478 0,0.82133 0.12088,1.49427 0.26863,1.49427 0.14775,0 0.26863,-0.59635 0.26863,-1.32638 0,-0.73002 -0.12088,-1.40296 -0.26863,-1.49428 -0.0208,-0.0129 -0.0588,0.0112 -0.0588,-0.008 z m 99.268476,0.14273 0,1.34316 c 0,0.73875 0.12088,1.34317 0.26863,1.34317 0.14775,0 0.26863,-0.49005 0.26863,-1.09132 0,-0.98005 0.0626,-1.08433 0.60443,-1.00738 0.50307,0.0714 0.61937,0.2787 0.68837,1.23404 0.0961,1.33019 0.58764,1.274 0.58764,-0.0672 0,-1.47596 -0.33974,-1.22786 -1.36835,-1.75451 z m 4.41566,0 c -1.375,0 -1.95196,1.43183 -0.99898,2.48486 0.33968,0.37534 0.67899,0.46863 1.25922,0.35258 0.43587,-0.0872 0.8094,-0.18287 0.83108,-0.21827 0.0217,-0.0354 -0.0129,-0.64136 -0.0755,-1.34316 -0.11142,-1.24679 -0.13274,-1.27601 -1.01577,-1.27601 z m -6.63189,0.0336 c -0.42788,0.0211 -0.56153,0.18031 -0.73874,0.6464 -0.38624,1.01588 0.18053,2.11287 1.15008,2.22462 0.96174,0.11085 0.66849,0.58764 -0.36097,0.58764 -0.85975,0 -1.07669,0.42321 -0.319,0.62121 0.86894,0.22708 1.05865,0.19018 1.51946,-0.319 0.3473,-0.38377 0.42508,-0.88936 0.37776,-2.08191 l -0.084,-1.57822 -1.00737,-0.0839 c -0.21973,-0.0183 -0.39465,-0.0238 -0.53727,-0.0168 z m -1.94759,0.17629 c -0.25336,0.0699 -0.37976,1.81421 -0.1679,2.30018 0.0539,0.12368 0.21143,0.10757 0.35259,-0.0336 0.33294,-0.33295 0.16728,-2.36368 -0.18469,-2.26659 z m -86.70986,0.10913 c 0.42843,-0.0269 0.81344,0.42065 0.74713,0.99059 -0.0786,0.67588 -0.70942,1.06188 -1.09972,0.67158 -0.27172,-0.27173 -0.22909,-1.38353 0.0588,-1.56143 0.0984,-0.0608 0.19494,-0.0945 0.29382,-0.10074 z m -6.27931,0.21827 c 0.37262,-0.0188 0.79371,0.33107 0.85626,0.87306 0.0722,0.62556 -0.0202,0.73874 -0.57924,0.73874 -0.693166,0 -1.092066,-0.74431 -0.721946,-1.34317 0.11188,-0.18102 0.275546,-0.26008 0.444926,-0.26863 z m 101.46791,0 c 0.3935,0 0.52048,0.19168 0.52048,0.78071 0,0.87351 -0.60294,1.265 -1.07453,0.69677 -0.43162,-0.52007 -0.0744,-1.47748 0.55405,-1.47748 z m -5.98549,0.0336 c 0.2487,0.002 0.3274,0.23666 0.3274,0.88985 0,1.04445 -0.47469,1.27187 -1.09132,0.52887 -0.41401,-0.49885 -0.0634,-1.26225 0.6464,-1.40193 0.0429,-0.008 0.082,-0.0171 0.11752,-0.0168 z m -69.96232,6.84242 c -0.74741,-0.0106 -1.25083,0.42682 -1.25083,1.16688 0,0.66626 0.13068,0.83746 0.73874,0.9654 1.89928,0.39962 2.1904,1.34589 0.40296,1.30959 -1.16182,-0.0236 -1.63622,0.52863 -0.67159,0.78072 0.89225,0.23316 1.29387,0.18167 1.88883,-0.23506 1.08631,-0.76088 0.7189,-1.66647 -0.88145,-2.18265 -0.44325,-0.14296 -0.8059,-0.43709 -0.8059,-0.64639 0,-0.24376 0.2897,-0.37777 0.8059,-0.37777 0.96294,0 1.18446,-0.46755 0.3274,-0.69677 -0.19584,-0.0524 -0.38158,-0.0815 -0.55406,-0.084 z m 46.38125,0.10914 0,2.17425 c 0,1.61818 0.0856,2.1407 0.33579,2.05672 0.18469,-0.062 0.3358,-0.51398 0.3358,-1.00737 0,-0.82517 0.0757,-0.90647 0.94021,-1.00738 1.56539,-0.18271 1.99106,-0.81022 1.16688,-1.72093 -0.30076,-0.33234 -0.89456,-0.16505 -1.6118,-0.49529 z m -94.491831,0.042 c -0.76779,-0.0176 -1.6175,0.14717 -1.59502,0.42813 0.0148,0.18469 0.045,1.06111 0.0672,1.9476 0.0222,0.88649 0.16229,1.6118 0.31061,1.6118 0.14831,0 0.23897,-0.39297 0.20147,-0.87306 -0.0589,-0.75368 0.0161,-0.88353 0.59603,-0.94861 1.57885,-0.17719 1.88044,-0.33511 1.88044,-0.9738 0,-0.34846 -0.16707,-0.77374 -0.37777,-0.94861 -0.18856,-0.15649 -0.62226,-0.23288 -1.08292,-0.24345 z m 143.903611,0.008 c 0,-0.23532 -0.46392,0.0108 -0.65479,0.0588 -0.52601,0.13202 -0.67159,0.33792 -0.67159,0.95701 0,0.69345 0.1334,0.83177 1.06614,1.08293 1.27402,0.34306 1.60582,0.76575 0.9654,1.23404 -0.33015,0.24141 -0.67054,0.26828 -1.1333,0.0923 -0.85877,-0.32651 -0.89824,-0.31871 -0.89824,0.13431 0,0.21079 0.21155,0.44171 0.47011,0.51208 0.25856,0.0704 0.77315,0.063 1.14169,-0.008 1.90957,-0.37001 1.79124,-1.94802 -0.18468,-2.47646 -1.05488,-0.28212 -0.98984,-0.96541 0.0923,-0.96541 0.46736,0 0.93683,-0.0811 1.04095,-0.18468 0.2153,-0.21426 -1.23403,0.26944 -1.23403,-0.43653 z m -144.172251,0.5121 c 0.51035,0.0144 1.05774,0.21665 1.05774,0.51208 0,0.25568 -0.30989,0.43468 -0.84787,0.4869 -0.89141,0.0865 -1.40869,-0.34582 -0.95701,-0.79751 0.15112,-0.15111 0.44093,-0.21014 0.74714,-0.20147 z m 95.725881,0 c 0.11576,-0.005 0.26295,0.008 0.44492,0.0252 0.57355,0.0554 0.89836,0.24444 0.957,0.55405 0.0713,0.37663 -0.10401,0.47011 -0.87305,0.47011 -0.79065,0 -0.95701,-0.0975 -0.95701,-0.55405 0,-0.34747 0.0808,-0.48156 0.42814,-0.4953 z m -45.12204,0.51208 c -0.37042,0 -0.31124,0.35135 0.29382,1.76291 0.48957,1.14213 0.50305,1.31349 0.13432,1.72093 -0.22542,0.24909 -0.41135,0.54478 -0.41135,0.6548 0,0.55267 0.93506,-0.0814 1.15008,-0.78072 0.1363,-0.44325 0.41284,-1.1882 0.62122,-1.65378 0.48434,-1.08212 0.47728,-1.4355 -0.0252,-1.4355 -0.24813,0 -0.40295,0.25101 -0.40295,0.65479 0,1.022 -0.40305,1.0212 -0.77232,0 -0.18416,-0.50925 -0.44946,-0.92343 -0.58765,-0.92343 z m -47.170371,0.042 c -0.0883,-0.004 -0.19224,-0.003 -0.29382,0.008 -0.68902,0.0793 -0.73856,0.17886 -0.81429,1.49427 -0.0651,1.13051 0.002,1.41033 0.33579,1.41033 0.31512,0 0.41135,-0.29532 0.41135,-1.20885 0,-0.89545 0.10446,-1.20886 0.40295,-1.20886 0.22162,0 0.40295,-0.12785 0.40295,-0.28542 0,-0.11817 -0.18002,-0.1967 -0.44493,-0.20987 z m 145.204811,0.18468 c -0.19,0.0302 -0.57618,0.41352 -0.78911,0.91504 l -0.36937,0.87305 -0.28542,-0.71355 c -0.29315,-0.73275 -0.78509,-1.18769 -1.02417,-0.94862 -0.0743,0.0744 0.11394,0.62622 0.41974,1.22565 0.66053,1.29472 0.68731,1.73763 0.15111,2.18264 -0.22,0.18259 -0.33281,0.43984 -0.25185,0.57085 0.42618,0.68957 0.96248,0.0427 1.59502,-1.91401 0.26269,-0.81262 0.53626,-1.62859 0.60442,-1.81328 0.10589,-0.28693 0.0636,-0.39589 -0.0504,-0.37777 z m -50.38557,0.042 0,1.50267 c 0,1.08277 0.0934,1.46061 0.33579,1.37675 0.20486,-0.0709 0.29884,-0.4616 0.24345,-1.00738 -0.0696,-0.6863 0.0555,-1.00612 0.53726,-1.37675 l 0.62962,-0.4869 -0.87306,0 z"
       id="path3102"
       style="fill:#000000" />
  </g>
</svg>
